<svg version="1.1" xmlns="http://www.w3.org/2000/svg" xmlns:xlink="http://www.w3.org/1999/xlink" width="32" height="32" viewBox="0 0 32 32">
<path  d="M24.5 23.125c4.375 1.5 6.563 2.813 6.563 3.875 0 0 0 3.375 0 3.375s-15.063 0-15.063 0c0 0-15.063 0-15.063 0s0-3.375 0-3.375c0-1.063 2.188-2.375 6.563-3.875 2-0.75 3.375-1.5 4.063-2.25 0.75-0.75 1.125-1.75 1.125-3 0-0.5-0.25-1-0.75-1.563-0.438-0.625-0.75-1.375-1-2.375-0.063-0.25-0.125-0.438-0.313-0.563-0.125-0.125-0.25-0.188-0.438-0.25-0.125-0.063-0.25-0.25-0.438-0.563-0.125-0.313-0.25-0.75-0.25-1.375 0-0.313 0-0.625 0.125-0.813 0.125-0.25 0.188-0.375 0.313-0.375 0 0 0.125-0.125 0.125-0.125-0.188-1.063-0.313-2-0.375-2.813-0.125-1.188 0.313-2.375 1.313-3.625 0.938-1.188 2.625-1.813 5-1.813s4.063 0.625 5.063 1.813c1 1.25 1.375 2.438 1.25 3.625 0 0-0.375 2.813-0.375 2.813 0.375 0.125 0.563 0.625 0.563 1.313 0 0.625-0.125 1.063-0.25 1.375-0.188 0.313-0.313 0.5-0.438 0.563-0.188 0.063-0.313 0.125-0.438 0.25-0.188 0.125-0.25 0.313-0.313 0.563-0.188 1.063-0.5 1.813-1 2.375s-0.75 1.063-0.75 1.563c0 1.25 0.375 2.25 1.125 3s2.125 1.5 4.063 2.25z"></path>
</svg>
