<svg version="1.1" xmlns="http://www.w3.org/2000/svg" xmlns:xlink="http://www.w3.org/1999/xlink" width="32" height="32" viewBox="0 0 32 32">
<path  d="M22 16c1.84 0 3.32-1.493 3.32-3.333s-1.48-3.333-3.32-3.333c-1.84 0-3.333 1.493-3.333 3.333s1.493 3.333 3.333 3.333zM12 14.667c2.207 0 3.987-1.793 3.987-4s-1.78-4-3.987-4c-2.207 0-4 1.793-4 4s1.793 4 4 4zM22 18.667c-2.447 0-7.333 1.227-7.333 3.667v3h14.667v-3c0-2.44-4.887-3.667-7.333-3.667zM12 17.333c-3.113 0-9.333 1.56-9.333 4.667v3.333h9.333v-3c0-1.133 0.447-3.113 3.16-4.627-1.16-0.247-2.287-0.373-3.16-0.373z"></path>
</svg>
