<svg version="1.1" xmlns="http://www.w3.org/2000/svg" xmlns:xlink="http://www.w3.org/1999/xlink" width="32" height="32" viewBox="0 0 32 32">
<path  d="M16 0.625c4.25 0 7.875 1.5 10.875 4.5s4.5 6.625 4.5 10.875c0 4.25-1.5 7.813-4.5 10.875-3 3-6.625 4.5-10.875 4.5s-7.875-1.5-10.875-4.5c-3-3.063-4.5-6.625-4.5-10.875s1.5-7.875 4.5-10.875c3-3 6.625-4.5 10.875-4.5zM19.625 11.188c0 0 0-2.5 0-2.5s-2.25 0-2.25 0c-1 0-1.75 0.375-2.375 1.063-0.688 0.688-1 1.563-1 2.625 0 0 0 1.375 0 1.375s-2.438 0-2.438 0c0 0 0 2.375 0 2.375s2.438 0 2.438 0c0 0 0 7.125 0 7.125s2.75 0 2.75 0c0 0 0-7.125 0-7.125s2.875 0 2.875 0c0 0 0-2.375 0-2.375s-2.875 0-2.875 0c0 0 0-1.625 0-1.625 0-0.625 0.188-0.938 0.625-0.938 0 0 2.25 0 2.25 0z"></path>
</svg>
