<svg version="1.1" xmlns="http://www.w3.org/2000/svg" xmlns:xlink="http://www.w3.org/1999/xlink" width="32" height="32" viewBox="0 0 32 32">
<path  d="M24 6.563c0 0-4.563 0-4.563 0-0.25 0-0.563 0.188-0.813 0.5-0.188 0.313-0.313 0.75-0.313 1.188 0 0 0 3.25 0 3.25s5.688 0 5.688 0c0 0 0 4.75 0 4.75s-5.688 0-5.688 0c0 0 0 14.125 0 14.125s-5.438 0-5.438 0c0 0 0-14.125 0-14.125s-4.875 0-4.875 0c0 0 0-4.75 0-4.75s4.875 0 4.875 0c0 0 0-2.75 0-2.75 0-2 0.625-3.688 1.875-5.063s2.813-2.063 4.688-2.063c0 0 4.563 0 4.563 0s0 4.938 0 4.938z"></path>
</svg>
