<svg version="1.1" xmlns="http://www.w3.org/2000/svg" xmlns:xlink="http://www.w3.org/1999/xlink" width="24" height="32" viewBox="0 0 24 32">
<path  d="M18 2h-18v28h24v-22zM2 4h8c-0.406 0.125-0.844 0.469-1.094 1.344-0.406 1.531-0.219 4.094 0.5 6.531-0.75 2.531-3.844 8.656-4.031 9.031-0.5 0.125-2.063 0.719-3.375 1.844zM10.844 13.594c1.813 4.688 2.969 4.688 4.219 5.25-2.625 0.406-4.625 0.688-7.25 1.875-0.125 0.188 2.375-4.563 3.031-7.125zM22 28h-20c0.031 0 0.031 0 0.063 0 1.063 0 2.656-0.656 5.625-5.688 1.219-0.5 2.25-0.844 2.469-0.906 1.844-0.469 3.906-0.844 5.844-1.063 1.719 0.875 3.969 1.438 5.25 1.531 0.313 0 0.5-0.063 0.75-0.063zM22 18.281c-0.75-0.438-1.688-0.781-2.781-0.781-0.75 0-1.594 0.063-2.469 0.156-0.844-0.406-2.875-1.031-4.594-5.938 0.531-3.25 0.406-5.438 0.406-5.438 0.188-1.656-0.75-2.281-1.625-2.281h6.063l5 5z"></path>
</svg>
