<svg version="1.1" xmlns="http://www.w3.org/2000/svg" xmlns:xlink="http://www.w3.org/1999/xlink" width="32" height="32" viewBox="0 0 32 32">
<path  d="M21.125 18.063c0.563 0 1 0.25 1.438 0.813 0.375 0.563 0.625 1.25 0.625 2.063s-0.25 1.5-0.625 2.063c-0.438 0.5-0.875 0.813-1.438 0.813-0.625 0-1.125-0.313-1.5-0.813-0.438-0.563-0.625-1.25-0.625-2.063s0.188-1.5 0.625-2.063c0.375-0.563 0.875-0.813 1.5-0.813zM28.375 10.563c1.563 1.688 2.375 3.75 2.375 6.188 0 1.625-0.188 3-0.563 4.25-0.375 1.313-0.813 2.313-1.375 3.125-0.563 0.75-1.25 1.438-2.063 2.063-0.813 0.563-1.563 1-2.25 1.313-0.688 0.25-1.438 0.5-2.313 0.625s-1.563 0.25-2 0.25c-0.438 0-0.938 0.063-1.438 0.063-0.125 0-0.5 0-1.125 0-0.688 0.063-1.188 0.063-1.625 0.063s-0.938 0-1.625-0.063c-0.625 0-1 0-1.125 0-0.5 0-1-0.063-1.438-0.063s-1.125-0.125-2-0.25c-0.875-0.125-1.625-0.375-2.313-0.625-0.688-0.313-1.438-0.75-2.25-1.313-0.813-0.625-1.5-1.313-2.063-2.063-0.563-0.813-1-1.813-1.375-3.125-0.375-1.25-0.563-2.625-0.563-4.25 0-2.438 0.813-4.5 2.375-6.188-0.125-0.063-0.188-0.938 0-2.563 0.125-1.625 0.5-3.125 1.063-4.5 1.938 0.25 4.375 1.313 7.25 3.375 1-0.313 2.375-0.438 4.063-0.438 1.813 0 3.125 0.125 4.063 0.438 1.313-0.938 2.563-1.625 3.75-2.188 1.25-0.563 2.125-0.875 2.688-1 0 0 0.813-0.188 0.813-0.188 0.563 1.375 0.938 2.875 1.063 4.5 0.188 1.625 0.125 2.5 0 2.563zM16.063 27c3.563 0 6.25-0.438 8.063-1.25 1.813-0.875 2.688-2.625 2.688-5.25 0-1.563-0.563-2.813-1.75-3.875-0.563-0.563-1.25-0.875-2.063-1-0.75-0.125-2-0.125-3.625 0s-2.688 0.188-3.313 0.188c0 0-0.063 0-0.063 0s-0.063 0-0.063 0c-0.688 0-1.563-0.063-2.688-0.125-1.063-0.063-1.938-0.125-2.5-0.188-0.625 0-1.313 0.063-2.063 0.25-0.688 0.188-1.313 0.438-1.75 0.875-1.125 1-1.688 2.25-1.688 3.875 0 2.625 0.875 4.375 2.688 5.25 1.813 0.813 4.438 1.25 8 1.25 0 0 0.125 0 0.125 0zM10.938 18.063c0.563 0 1.063 0.25 1.438 0.813 0.438 0.563 0.625 1.25 0.625 2.063s-0.188 1.5-0.625 2.063c-0.375 0.5-0.875 0.813-1.438 0.813s-1.063-0.313-1.5-0.813c-0.375-0.563-0.625-1.25-0.625-2.063s0.25-1.5 0.625-2.063c0.438-0.563 0.938-0.813 1.5-0.813z"></path>
</svg>
