<svg version="1.1" xmlns="http://www.w3.org/2000/svg" xmlns:xlink="http://www.w3.org/1999/xlink" width="32" height="32" viewBox="0 0 32 32">
<path  d="M16 15.875c0.313 0 0.813 0 1.375-0.063 0.5-0.063 0.938-0.063 1.25-0.063 0.375 0 0.688 0.063 1.063 0.125s0.688 0.25 0.938 0.438c0.563 0.563 0.813 1.188 0.813 1.938 0 1.375-0.438 2.25-1.375 2.688s-2.25 0.625-4.063 0.625c-1.813 0-3.125-0.188-4.063-0.625s-1.375-1.313-1.375-2.688c0-0.75 0.25-1.375 0.813-1.938 0.25-0.188 0.563-0.375 0.938-0.438s0.688-0.125 1.063-0.125c0.313 0 0.75 0 1.25 0.063 0.563 0.063 1.063 0.063 1.375 0.063zM13.438 19.938c0.313 0 0.563-0.125 0.75-0.438 0.188-0.25 0.25-0.625 0.25-1 0-1-0.313-1.5-1-1.5s-1 0.5-1 1.5c0 0.375 0.063 0.75 0.25 1 0.188 0.313 0.438 0.438 0.75 0.438zM18.563 19.938c0.313 0 0.563-0.125 0.75-0.438 0.25-0.25 0.313-0.625 0.313-1 0-0.438-0.063-0.813-0.313-1.063-0.188-0.25-0.438-0.438-0.75-0.438-0.688 0-1 0.5-1 1.5 0 0.375 0.063 0.75 0.25 1 0.188 0.313 0.438 0.438 0.75 0.438zM16 0.625c4.25 0 7.875 1.5 10.875 4.5s4.5 6.625 4.5 10.875c0 4.25-1.5 7.813-4.5 10.875-3 3-6.625 4.5-10.875 4.5s-7.813-1.5-10.875-4.5c-3-3.063-4.5-6.625-4.5-10.875s1.5-7.875 4.5-10.875c3.063-3 6.625-4.5 10.875-4.5zM17.438 22.25c4 0 6-1.938 6-5.875 0-1.188-0.438-2.25-1.25-3.125 0.125-0.063 0.125-0.5 0.063-1.313s-0.25-1.563-0.563-2.25c-0.938 0.125-2.125 0.688-3.625 1.625-0.438-0.125-1.125-0.188-2.063-0.188-0.875 0-1.563 0.063-2.063 0.188-0.625-0.438-1.25-0.75-1.875-1.063-0.625-0.25-1.063-0.438-1.313-0.5 0 0-0.438-0.063-0.438-0.063-0.313 0.688-0.5 1.438-0.563 2.25s-0.063 1.25 0.063 1.313c-0.813 0.875-1.25 1.938-1.25 3.125 0 3.938 2 5.875 6 5.875 0 0 1.438 0 1.438 0s1.438 0 1.438 0z"></path>
</svg>
