<svg version="1.1" xmlns="http://www.w3.org/2000/svg" xmlns:xlink="http://www.w3.org/1999/xlink" width="32" height="32" viewBox="0 0 32 32">
<path  d="M14.5 11.625c0.188 0.688 0.188 1.25 0 1.875-0.188 0.563-0.5 0.875-1 1 0 0-0.313 0-0.313 0-0.875 0-1.563-0.625-1.938-1.875-0.125-0.688-0.063-1.25 0.063-1.75 0.25-0.5 0.563-0.813 1-0.938 0-0.063 0.125-0.063 0.313-0.063 0.938 0 1.563 0.563 1.875 1.75zM16 0.625c4.25 0 7.875 1.5 10.875 4.5s4.5 6.625 4.5 10.875c0 4.25-1.5 7.813-4.5 10.875-3 3-6.625 4.5-10.875 4.5s-7.813-1.5-10.875-4.5c-3-3.063-4.5-6.625-4.5-10.875s1.5-7.875 4.5-10.875c3.063-3 6.625-4.5 10.875-4.5zM15.125 22.563c1.25-0.625 1.875-1.625 1.875-3.125 0-0.938-0.5-1.875-1.625-2.938-0.563-0.438-0.875-0.813-0.875-1 0-0.25 0.25-0.563 0.688-0.875 0.688-0.688 1.063-1.563 1.063-2.5 0-1.25-0.375-2.125-1.125-2.5 0-0.063 0.125-0.125 0.313-0.125s0.25 0 0.313 0c0.875-0.125 1.25-0.313 1.25-0.563 0 0 0-0.125 0-0.125s-3.688 0-3.688 0c-0.25 0-0.625 0.063-1.063 0.125-0.438 0.125-1 0.438-1.688 1.063-0.688 0.563-1 1.375-1 2.438 0 1.188 0.375 2 1.188 2.563 0.5 0.313 1.063 0.5 1.813 0.5 0 0 0.188 0 0.188 0-0.125 0.5 0.063 1.063 0.5 1.563 0 0-0.063 0-0.063 0-2.938 0-4.438 1-4.438 3.063 0 0.813 0.313 1.5 0.938 2 0.563 0.5 1.125 0.75 1.563 0.875 0.438 0.063 0.875 0.125 1.25 0.125 0 0 0.125 0 0.125 0s0.125 0 0.125 0c0.813 0 1.625-0.188 2.375-0.563zM23.25 15.938c0 0 0-1.563 0-1.563s-2.438 0-2.438 0c0 0 0-2.438 0-2.438s-1.563 0-1.563 0c0 0 0 2.438 0 2.438s-2.438 0-2.438 0c0 0 0 1.563 0 1.563s2.438 0 2.438 0c0 0 0 2.438 0 2.438s1.563 0 1.563 0c0 0 0-2.438 0-2.438s2.438 0 2.438 0zM13.188 17.813c0.688 0 1.25 0.188 1.688 0.5 0.375 0.375 0.625 0.875 0.688 1.375 0.063 0.563-0.188 1.063-0.625 1.438s-1 0.563-1.75 0.625c-0.75 0.125-1.375 0-1.938-0.313-0.563-0.375-0.813-0.813-0.875-1.313 0-0.563 0.25-1.125 0.688-1.563s1.063-0.688 1.875-0.75c0 0 0.25 0 0.25 0z"></path>
</svg>
