<svg version="1.1" xmlns="http://www.w3.org/2000/svg" xmlns:xlink="http://www.w3.org/1999/xlink" width="32" height="32" viewBox="0 0 32 32">
<path  d="M8.063 16.5c0.563 0.438 1.188 0.688 1.938 0.688 0.875-0.063 1.688-0.375 2.25-1 0.313-0.438 0.5-0.875 0.563-1.375 0.063-0.438 0.125-0.813 0.125-1.125 0-1.375-0.375-2.75-1.063-4.188-0.313-0.625-0.75-1.188-1.313-1.625-0.563-0.375-1.188-0.563-1.875-0.625-0.938 0.063-1.75 0.438-2.375 1.125-0.5 0.813-0.75 1.625-0.75 2.625 0 1.25 0.375 2.563 1.125 3.875 0.375 0.625 0.813 1.188 1.375 1.625zM10.188 21.75c-0.25-0.313-0.5-0.625-0.688-1-0.25-0.375-0.313-0.813-0.313-1.313 0-0.313 0-0.563 0.125-0.813 0.063-0.188 0.125-0.375 0.188-0.563-0.375 0-0.75 0.063-1.125 0.063-1.625 0-2.938-0.5-3.875-1.438v6.188c0.813-0.375 1.688-0.625 2.625-0.813 1.188-0.188 2.25-0.25 3.063-0.313zM11.125 22.75c-0.25 0-0.5 0-0.813 0-0.125-0.063-0.625 0-1.313 0.063-0.75 0.063-1.5 0.25-2.25 0.438-0.125 0.125-0.375 0.188-0.75 0.313-0.313 0.188-0.625 0.375-0.938 0.625-0.25 0.188-0.438 0.438-0.563 0.688v0.938c0 0.875 0.688 1.625 1.563 1.625h8.75c0-0.063 0-0.063 0-0.063 0-0.938-0.25-1.688-0.875-2.313-0.563-0.625-1.5-1.375-2.813-2.313zM25.938 4.563h-19.875c-0.875 0-1.563 0.75-1.563 1.625v2.188c0.063-0.125 0.188-0.25 0.313-0.375 1-0.813 2-1.313 3.063-1.563 1.063-0.188 2.063-0.313 2.938-0.313h6.938l-2.125 1.25h-2.125c0.188 0.125 0.438 0.313 0.75 0.563 0.25 0.313 0.5 0.625 0.75 1s0.438 0.813 0.625 1.313c0.188 0.563 0.25 1.125 0.25 1.813-0.063 1.25-0.313 2.25-0.813 3-0.313 0.313-0.563 0.688-0.875 1-0.313 0.25-0.625 0.563-1 0.875-0.188 0.25-0.375 0.5-0.563 0.75-0.188 0.313-0.313 0.625-0.313 1s0.125 0.625 0.313 0.875c0.188 0.25 0.375 0.438 0.5 0.625l1.188 0.938c0.75 0.625 1.375 1.25 1.938 2 0.5 0.75 0.813 1.688 0.813 2.875 0 0.5-0.063 0.938-0.188 1.438h9.063c0.875 0 1.563-0.75 1.563-1.625v-19.625c0-0.875-0.688-1.625-1.563-1.625zM27.188 11.688h-3.625v3.625h-1.813v-3.625h-3.625v-1.813h3.625v-3.625h1.813v3.625h3.625z"></path>
</svg>
