<svg xmlns="http://www.w3.org/2000/svg" xmlns:xlink="http://www.w3.org/1999/xlink" version="1.1" x="0px" y="0px" width="24px" height="24px" viewBox="0 0 24 24" enable-background="new 0 0 24 24" xml:space="preserve"><path d="M11.804 7.413c-2.591 0-4.691 2.1-4.691 4.691h2.346c0-1.291 1.055-2.345 2.345-2.345c1.292 0 2.296 1.08 2.296 2.295 c0 0.646-0.261 1.231-0.693 1.654l-1.456 1.478c-0.844 0.856-1.372 2.028-1.372 3.319v0.587h2.345c0-1.76 0.531-2.461 1.375-3.318 l1.055-1.079c0.67-0.669 1.091-1.607 1.091-2.639c0.051-2.509-2.013-4.669-4.578-4.643H11.804z"/><rect x="10.651" y="20.079" width="2.296" height="2.296"/><rect x="10.877" y="0.938" width="2.248" height="3.756"/><rect x="4.578" y="3.638" transform="matrix(0.707 -0.7072 0.7072 0.707 -2.2303 5.6485)" width="2.248" height="3.756"/><rect x="17.176" y="3.639" transform="matrix(0.7071 0.7071 -0.7071 0.7071 9.2606 -11.3238)" width="2.247" height="3.754"/></svg>