<svg version="1.1" xmlns="http://www.w3.org/2000/svg" xmlns:xlink="http://www.w3.org/1999/xlink" width="32" height="32" viewBox="0 0 32 32">
<path  d="M15.813 1.25c4.063 0 7.5 1.375 10.438 4.188 2.875 2.813 4.375 6.25 4.5 10.313 0 4.063-1.375 7.563-4.25 10.438-2.813 2.938-6.25 4.438-10.313 4.563-4.063 0-7.563-1.375-10.438-4.25-2.938-2.813-4.438-6.25-4.5-10.313s1.313-7.563 4.188-10.438c2.875-2.938 6.313-4.438 10.375-4.5zM15.75 24.938c0.625 0 1.188-0.188 1.563-0.563 0.375-0.438 0.625-0.938 0.625-1.5 0-0.688-0.125-1.188-0.563-1.625-0.375-0.375-0.938-0.563-1.563-0.563 0 0-0.063 0-0.063 0-0.625 0-1.125 0.188-1.5 0.563-0.438 0.375-0.625 0.875-0.688 1.5 0 0.625 0.188 1.125 0.625 1.563 0.375 0.375 0.875 0.625 1.5 0.625 0 0 0.063 0 0.063 0zM21.063 14.438c0.563-0.688 0.813-1.5 0.813-2.5 0-1.625-0.563-2.875-1.688-3.688s-2.563-1.188-4.313-1.188c-1.375 0-2.5 0.25-3.313 0.813-1.5 0.875-2.25 2.438-2.313 4.688 0 0 0 0.125 0 0.125s3.5 0 3.5 0c0 0 0-0.125 0-0.125 0-0.563 0.188-1.125 0.5-1.75 0.375-0.5 0.938-0.75 1.75-0.75 0.875 0 1.438 0.188 1.688 0.625 0.313 0.438 0.5 0.875 0.5 1.438 0 0.375-0.188 0.813-0.5 1.25-0.188 0.25-0.438 0.5-0.688 0.625 0 0-0.188 0.125-0.188 0.125-0.125 0.125-0.25 0.25-0.5 0.375-0.188 0.125-0.438 0.313-0.625 0.5-0.25 0.125-0.438 0.313-0.688 0.5s-0.438 0.375-0.563 0.563c-0.25 0.438-0.438 1.25-0.563 2.5 0 0 0 0.25 0 0.25s3.5 0 3.5 0c0 0 0-0.125 0-0.125 0-0.25 0-0.563 0.125-0.875 0.125-0.438 0.375-0.813 0.875-1.188 0 0 0.875-0.563 0.875-0.563 1-0.75 1.563-1.25 1.813-1.625z"></path>
</svg>
