<svg xmlns="http://www.w3.org/2000/svg" xmlns:xlink="http://www.w3.org/1999/xlink" version="1.1" x="0px" y="0px" width="20px" height="20px" viewBox="0 0 20 20" xml:space="preserve" class="style0"><style>.style0{enable-background:	new 0 0 20 20;}</style><path d="M9.886 0.992c2.481 0 4.58 0.839 6.375 2.558c1.757 1.718 2.673 3.818 2.748 6.299c0 2.482-0.839 4.62-2.596 6.375 c-1.718 1.794-3.816 2.711-6.298 2.787c-2.481 0-4.62-0.84-6.375-2.597c-1.794-1.717-2.71-3.816-2.749-6.298 c-0.038-2.482 0.802-4.62 2.558-6.375C5.305 1.946 7.405 1.03 9.886 0.992L9.886 0.992z M9.847 15.459 c0.381 0 0.725-0.114 0.954-0.344c0.229-0.268 0.382-0.572 0.382-0.915c0-0.42-0.076-0.726-0.344-0.993 c-0.229-0.229-0.573-0.344-0.955-0.344H9.846c-0.381 0-0.687 0.115-0.916 0.344c-0.268 0.229-0.382 0.535-0.421 0.916 c0 0.381 0.115 0.687 0.382 0.954c0.229 0.229 0.535 0.382 0.917 0.382H9.847L9.847 15.459z M13.092 9.046 c0.345-0.42 0.497-0.917 0.497-1.527c0-0.992-0.345-1.756-1.031-2.252C11.87 4.77 10.992 4.542 9.924 4.542 c-0.84 0-1.527 0.152-2.024 0.497C6.984 5.572 6.525 6.527 6.487 7.901v0.077h2.138V7.901c0-0.344 0.115-0.687 0.306-1.068 C9.16 6.527 9.503 6.374 9.999 6.374c0.535 0 0.879 0.115 1.031 0.382c0.191 0.268 0.306 0.535 0.306 0.878 c0 0.229-0.115 0.496-0.306 0.764c-0.115 0.153-0.268 0.305-0.42 0.382l-0.115 0.076c-0.076 0.076-0.152 0.153-0.305 0.229 C10.075 9.161 9.922 9.276 9.808 9.39c-0.153 0.076-0.268 0.191-0.42 0.305C9.235 9.81 9.12 9.925 9.044 10.04 c-0.153 0.268-0.267 0.764-0.344 1.527v0.152h2.138v-0.076c0-0.152 0-0.344 0.077-0.534c0.076-0.268 0.229-0.497 0.535-0.726 l0.534-0.344C12.595 9.581 12.938 9.275 13.092 9.046L13.092 9.046z"/></svg>