<svg xmlns="http://www.w3.org/2000/svg" xmlns:xlink="http://www.w3.org/1999/xlink" version="1.1" id="Layer_1" x="0px" y="0px" width="24px" height="24px" viewBox="0 0 24 24" enable-background="new 0 0 24 24" xml:space="preserve">
<g>
	<path d="M11.854 2c-5.53 0-10 4.47-10 10c0 5.5 4.5 10 10 10c5.529 0 10-4.471 10-10C21.854 6.5 17.4 2 11.9 2z M11.854 20 c-4.41 0-8-3.59-8-8s3.59-8 8-8c4.41 0 8 3.6 8 8S16.264 20 11.9 20z"/>
	<path d="M11.854 5.92c-1.919 0-3.474 1.555-3.474 3.474h1.737c0-0.956 0.782-1.737 1.737-1.737c0.956 0 1.7 0.8 1.7 1.7 c0 0.478-0.192 0.912-0.513 1.225l-1.078 1.094c-0.625 0.634-1.016 1.502-1.016 2.458v0.435h1.737c0-1.303 0.392-1.823 1.017-2.458 l0.782-0.799c0.495-0.495 0.807-1.19 0.807-1.954C15.328 7.5 13.8 5.9 11.9 5.92z"/>
	<rect x="11" y="16.3" width="1.7" height="1.7"/>
</g>
</svg>
