<svg version="1.1" xmlns="http://www.w3.org/2000/svg" xmlns:xlink="http://www.w3.org/1999/xlink" width="32" height="32" viewBox="0 0 32 32">
<path  d="M27.375 10.625c0 0-3.188 0-3.188 0s-3.938-4.813-3.938-4.813c0 0-6.875 4.813-6.875 4.813s-5.75 0-5.75 0c-1.125 0-2.063 0.438-2.875 1.25s-1.188 1.813-1.188 2.938c0 0 0 5.063 0 5.063s-3.5-9.438-3.5-9.438c-0.188-0.813 0.063-1.375 0.688-1.688 0 0 21.813-7.938 21.813-7.938 0.75-0.188 1.25 0.063 1.563 0.813 0 0 3.25 9 3.25 9zM30.813 13.5c0.313 0 0.625 0.125 0.875 0.375 0.188 0.25 0.313 0.563 0.313 0.938 0 0 0 15.063 0 15.063 0 0.375-0.125 0.625-0.313 0.938-0.25 0.25-0.563 0.375-0.875 0.375 0 0-23.188 0-23.188 0-0.313 0-0.625-0.125-0.875-0.375-0.25-0.313-0.313-0.563-0.313-0.938 0 0 0-15.063 0-15.063 0-0.375 0.063-0.688 0.313-0.938s0.563-0.375 0.875-0.375c0 0 23.188 0 23.188 0zM29 27.938c0 0 0-5.125 0-5.125s-2.313-5.125-2.313-5.125c0 0-5.313 1.875-5.313 1.875s-4.125 4.25-4.125 4.25c0 0-4.438-5.438-4.438-5.438s-2.938 6.813-2.938 6.813c0 0 0 2.75 0 2.75s19.125 0 19.125 0z"></path>
</svg>
