<svg version="1.1" xmlns="http://www.w3.org/2000/svg" xmlns:xlink="http://www.w3.org/1999/xlink" width="32" height="32" viewBox="0 0 32 32">
<path  d="M15.813 1.25c4.063 0 7.5 1.375 10.438 4.188 2.875 2.813 4.375 6.25 4.5 10.313 0 4.063-1.375 7.563-4.25 10.438-2.813 2.938-6.25 4.438-10.313 4.563-4.063 0-7.563-1.375-10.438-4.25-2.938-2.813-4.438-6.25-4.5-10.313s1.313-7.563 4.188-10.438c2.875-2.938 6.313-4.438 10.375-4.5zM17.5 6.125c-0.938 0-1.625 0.25-2.125 0.813-0.5 0.5-0.75 1-0.75 1.563 0 0.625 0.125 1.063 0.5 1.438 0.375 0.313 0.875 0.5 1.563 0.5 0.813 0 1.5-0.25 1.938-0.688 0.5-0.5 0.75-1.063 0.75-1.75 0-1.25-0.625-1.875-1.875-1.875zM13.625 25.125c0.625 0 1.563-0.25 2.688-0.813 1.188-0.563 2.313-1.375 3.375-2.5 0 0-0.563-0.75-0.563-0.75-1 0.75-1.75 1.125-2.313 1.125-0.25 0-0.313-0.375-0.125-1.188 0 0 1.375-5.125 1.375-5.125 0.563-2.063 0.313-3.063-0.688-3.063-0.688 0-1.625 0.313-2.875 0.938s-2.5 1.375-3.688 2.375c0 0 0.5 0.813 0.5 0.813 1.125-0.688 1.938-1.063 2.375-1.063 0.25 0 0.25 0.375 0 1.063 0 0-1.125 4.875-1.125 4.875-0.563 2.25-0.188 3.313 1.063 3.313z"></path>
</svg>
