<svg version="1.1" xmlns="http://www.w3.org/2000/svg" xmlns:xlink="http://www.w3.org/1999/xlink" width="32" height="32" viewBox="0 0 32 32">
<path  d="M24.313 16c0-0.563-0.063-1.063-0.188-1.625 0 0 5.625 0 5.625 0s0 11.063 0 11.063c0 1.188-0.375 2.188-1.25 3.063-0.813 0.813-1.813 1.25-3 1.25 0 0-19 0-19 0-1.188 0-2.188-0.438-3-1.25-0.875-0.875-1.25-1.875-1.25-3.063 0 0 0-11.063 0-11.063s5.563 0 5.563 0c-0.063 0.688-0.125 1.25-0.125 1.625 0 2.25 0.813 4.188 2.438 5.875 1.625 1.625 3.563 2.438 5.875 2.438 2.25 0 4.188-0.813 5.875-2.438 1.625-1.688 2.438-3.625 2.438-5.875zM25.5 2.25c1.188 0 2.188 0.375 3 1.25 0.875 0.813 1.25 1.813 1.25 3 0 0 0 4.688 0 4.688s-6.938 0-6.938 0c-1.688-2.313-3.938-3.5-6.813-3.5-2.938 0-5.188 1.188-6.813 3.5 0 0-6.938 0-6.938 0s0-4.688 0-4.688c0-1.188 0.375-2.188 1.25-3 0.813-0.875 1.813-1.25 3-1.25 0 0 19 0 19 0zM27.5 7.563c0 0 0-2.313 0-2.313 0-0.5-0.25-0.75-0.75-0.75 0 0-2.313 0-2.313 0-0.5 0-0.75 0.25-0.75 0.75 0 0 0 2.313 0 2.313 0 0.188 0.063 0.313 0.188 0.5 0.188 0.188 0.375 0.25 0.563 0.25 0 0 2.313 0 2.313 0 0.5 0 0.75-0.25 0.75-0.75zM21.125 16c0 1.438-0.5 2.625-1.5 3.625s-2.188 1.5-3.625 1.5c-1.438 0-2.625-0.5-3.625-1.5s-1.5-2.188-1.5-3.625c0-1.438 0.5-2.688 1.5-3.625 1-1 2.188-1.5 3.625-1.5s2.625 0.5 3.625 1.5c1 0.938 1.5 2.188 1.5 3.625z"></path>
</svg>
