<svg version="1.1" xmlns="http://www.w3.org/2000/svg" xmlns:xlink="http://www.w3.org/1999/xlink" width="32" height="32" viewBox="0 0 32 32">
<path  d="M16 0.625c4.25 0 7.875 1.5 10.875 4.5s4.5 6.625 4.5 10.875c0 4.25-1.5 7.813-4.5 10.875-3 3-6.625 4.5-10.875 4.5s-7.813-1.5-10.875-4.5c-3-3.063-4.5-6.625-4.5-10.875s1.5-7.875 4.5-10.875c3.063-3 6.625-4.5 10.875-4.5zM12.25 22.313c0 0 0-9.938 0-9.938s-3.125 0-3.125 0c0 0 0 9.938 0 9.938s3.125 0 3.125 0zM10.688 11.063c1.125 0 1.688-0.5 1.688-1.5 0-1.063-0.563-1.563-1.688-1.563-0.438 0-0.875 0.125-1.188 0.438s-0.5 0.688-0.5 1.125c0 1 0.563 1.5 1.688 1.5zM23.625 22.313c0 0 0-5.875 0-5.875 0-1.375-0.313-2.5-1-3.25-0.688-0.688-1.5-1.063-2.563-1.063-1.438 0-2.438 0.5-3.125 1.563 0 0-0.063 0-0.063 0s-0.188-1.313-0.188-1.313c0 0-2.688 0-2.688 0 0.063 0.563 0.063 1.625 0.063 3.188 0 0 0 6.75 0 6.75s3.125 0 3.125 0c0 0 0-5.75 0-5.75 0-0.375 0.063-0.625 0.188-0.75 0.25-0.813 0.75-1.25 1.563-1.25 1 0 1.563 0.75 1.563 2.188 0 0 0 5.563 0 5.563s3.125 0 3.125 0z"></path>
</svg>
