<svg version="1.1" xmlns="http://www.w3.org/2000/svg" xmlns:xlink="http://www.w3.org/1999/xlink" width="32" height="32" viewBox="0 0 32 32">
<path  d="M8.125 4.875c0 0.813-0.313 1.563-0.938 2.188-0.625 0.563-1.375 0.875-2.375 0.875-0.938 0-1.75-0.313-2.313-0.875-0.625-0.625-0.875-1.375-0.875-2.188 0-0.938 0.25-1.625 0.875-2.25 0.563-0.563 1.375-0.813 2.375-0.813s1.75 0.25 2.313 0.813c0.563 0.625 0.875 1.313 0.938 2.25zM1.813 30.125c0 0 0-19.75 0-19.75s6.125 0 6.125 0c0 0 0 19.75 0 19.75s-6.125 0-6.125 0zM11.563 16.688c0-1.813 0-3.938-0.125-6.313 0 0 5.313 0 5.313 0s0.313 2.75 0.313 2.75c0 0 0.125 0 0.125 0 1.313-2.125 3.313-3.188 6.125-3.188 2.125 0 3.813 0.688 5.125 2.125s1.938 3.563 1.938 6.375c0 0 0 11.688 0 11.688s-6.125 0-6.125 0c0 0 0-10.938 0-10.938 0-2.875-1.063-4.25-3.125-4.25-1.5 0-2.563 0.75-3.125 2.25-0.125 0.313-0.188 0.813-0.188 1.563 0 0 0 11.375 0 11.375s-6.25 0-6.25 0c0 0 0-13.438 0-13.438z"></path>
</svg>
