<svg xmlns="http://www.w3.org/2000/svg" width="24" height="24" viewBox="0 0 24 24"><path d="M18.58 12.456c-.696-.868-1.478-1.302-2.347-1.302v-6.77c.456 0 .854-.167 1.188-.502.336-.335.502-.73.502-1.19 0-.46-.166-.855-.5-1.19-.335-.335-.733-.502-1.19-.502H7.77c-.457 0-.853.167-1.19.502-.333.335-.5.73-.5 1.19 0 .458.167.854.5 1.19.337.334.734.502 1.19.502v6.77c-.87 0-1.653.434-2.346 1.302-.69.87-1.038 1.843-1.038 2.928 0 .23.083.428.25.598.17.166.367.25.597.25h5.342l1.004 6.413c.045.24.186.355.424.355h.014c.103 0 .195-.04.27-.113.076-.073.12-.163.14-.27l.673-6.386h5.67c.23 0 .43-.083.598-.25.167-.17.25-.366.25-.597 0-1.084-.344-2.058-1.036-2.927zm-7.85-1.725c0 .125-.04.226-.118.306-.08.077-.18.118-.304.118-.125 0-.226-.04-.305-.118-.08-.08-.12-.18-.12-.305V4.81c0-.124.04-.226.12-.304.08-.08.18-.12.305-.12.124 0 .223.04.304.12.08.078.118.18.118.304v5.923z"/></svg>