<svg xmlns="http://www.w3.org/2000/svg" xmlns:xlink="http://www.w3.org/1999/xlink" version="1.1" x="0px" y="0px" width="24px" height="24px" viewBox="0 0 24 24" enable-background="new 0 0 24 24" xml:space="preserve"><path d="M3.06 10.554h14.943V9.06H3.06V10.554z M11.278 19.519h5.23v-1.493h-5.23V19.519z M11.278 16.53h6.725v-1.492 h-6.725V16.53z M11.278 13.543h6.725v-1.495h-6.725V13.543z M3.06 19.519h6.724v-7.471H3.06V19.519z M20.991 7.565V4.577H0.071 v16.438c0 0 0 2.988 2.989 2.988h18.679c0 0 2.241-0.047 2.241-2.988V7.565H20.991z M3.06 22.508c-1.495 0-1.495-1.493-1.495-1.493 V6.071h17.932v14.944c0 0.688 0.213 1.164 0.505 1.493H3.06z"/></svg>