<svg xmlns="http://www.w3.org/2000/svg" xmlns:xlink="http://www.w3.org/1999/xlink" version="1.1" x="0px" y="0px" width="20px" height="20px" viewBox="0 0 20 20" xml:space="preserve" class="style0"><style>.style0{enable-background:	new 0 0 20 20;}</style><path d="M8.873 14.499h2.25v-2.251h-2.25V14.499z M9.998 5.497c-1.688 0-3.375 1.688-3.375 3.375h2.25 c0-0.562 0.563-1.125 1.125-1.125c0.563 0 1.125 0.563 1.125 1.125c0 1.125-2.25 1.125-2.25 2.251h2.25 c1.125-0.387 2.251-1.126 2.251-2.813C13.374 6.623 11.686 5.497 9.998 5.497z M9.998 0.996c-4.976 0-9.002 4.026-9.002 9.002 C0.996 14.975 5.022 19 9.998 19C14.974 19 19 14.975 19 9.998C19 5.022 14.974 0.996 9.998 0.996z M9.998 16.751 c-3.728 0-6.751-3.025-6.751-6.753S6.27 3.247 9.998 3.247c3.728 0 6.752 3.024 6.752 6.751S13.726 16.751 9.998 16.751z"/></svg>