<svg xmlns="http://www.w3.org/2000/svg" width="24" height="24" viewBox="0 0 24 24"><path d="M22.178 4.558l-2.132 2.134-1.37 1.314c-.714.055-1.423-.22-1.97-.712-.493-.547-.765-1.26-.713-1.97l3.45-3.5c.054-.056.054-.166 0-.22 0-.055 0-.055-.058-.055C18.62 1.22 17.8 1 16.925 1c-3.34 0-6.075 2.736-6.075 6.075 0 .656.11 1.258.33 1.806l-6.35 6.35C2.696 15.282 1 16.977 1 19.114 1 21.25 2.75 23 4.885 23c2.136 0 3.83-1.696 3.887-3.832l6.346-6.346c.546.22 1.15.33 1.81.33 3.335 0 6.072-2.737 6.072-6.077 0-.875-.22-1.697-.548-2.462v-.055h-.055c-.055-.056-.165-.056-.22 0zM6.528 19.113c0 .874-.765 1.586-1.64 1.586-.876 0-1.588-.713-1.588-1.587 0-.875.712-1.644 1.587-1.644.876 0 1.64.768 1.64 1.643z"/></svg>