<svg xmlns="http://www.w3.org/2000/svg" width="24" height="24" viewBox="0 0 24 24"><path d="M5.125 11.958c0-.262.015-.52.043-.777L1.195 9.885C1.067 10.554 1 11.25 1 11.958c0 3.176 1.335 6.04 3.473 8.05l2.456-3.393c-1.12-1.227-1.805-2.862-1.805-4.657zm13.75 0c0 1.795-.684 3.43-1.804 4.66l2.457 3.393C21.664 17.997 23 15.135 23 11.96c0-.71-.067-1.402-.194-2.073L18.83 11.18c.028.257.044.516.045.778zm-5.5-6.765c1.976.403 3.644 1.655 4.607 3.362l3.974-1.296c-1.572-3.354-4.774-5.783-8.58-6.26v4.194zM6.02 8.555c.964-1.706 2.632-2.958 4.607-3.362V1c-3.806.477-7.008 2.906-8.58 6.258l3.973 1.295v.002zm8.83 9.684c-.867.398-1.832.618-2.847.618s-1.98-.22-2.847-.62l-2.456 3.397C8.27 22.505 10.077 23 12 23s3.73-.496 5.303-1.365L14.85 18.24z"/></svg>