<svg xmlns="http://www.w3.org/2000/svg" width="24" height="24" viewBox="0 0 24 24"><path d="M12.15 7.617c-.73 0-1.323-.593-1.323-1.323v-3.97c0-.732.592-1.324 1.323-1.324.73 0 1.324.592 1.324 1.323v3.97c0 .73-.593 1.324-1.324 1.324zM12.15 23c-.457 0-.827-.37-.827-.826v-3.97c0-.458.37-.83.827-.83.458 0 .827.372.827.83v3.97c0 .457-.37.826-.827.826zM9.174 8.333c-.43 0-.846-.224-1.076-.62l-1.984-3.44c-.343-.593-.14-1.353.453-1.695.594-.343 1.353-.14 1.695.454l1.985 3.438c.343.593.14 1.352-.453 1.695-.196.113-.41.168-.62.168zM17.113 21.588c-.258 0-.508-.133-.646-.373l-1.984-3.438c-.205-.355-.084-.81.27-1.018.358-.206.814-.083 1.02.272l1.985 3.438c.205.357.082.81-.273 1.018-.118.067-.247.1-.372.1zM6.992 10.43c-.196 0-.395-.05-.578-.156L2.976 8.29c-.554-.32-.744-1.028-.423-1.583.32-.553 1.028-.742 1.582-.423l3.438 1.984c.555.32.744 1.028.424 1.582-.216.372-.605.58-1.005.58zM20.746 17.873c-.113 0-.227-.03-.332-.09L16.976 15.8c-.316-.185-.424-.59-.242-.905.184-.316.588-.426.904-.242l3.44 1.986c.313.18.423.587.24.9-.12.214-.343.333-.572.333zM6.196 13.324h-3.97c-.595 0-1.076-.482-1.076-1.076s.48-1.075 1.075-1.075h3.97c.595 0 1.077.48 1.077 1.075s-.482 1.076-1.076 1.076zM22.076 12.91h-3.97c-.366 0-.663-.296-.663-.66 0-.367.297-.664.662-.664h3.97c.366 0 .663.297.663.663 0 .364-.297.66-.662.66zM3.556 18.203c-.343 0-.677-.178-.86-.496-.274-.475-.112-1.082.363-1.355l3.437-1.986c.475-.273 1.082-.11 1.355.363.274.474.112 1.08-.363 1.356L4.05 18.07c-.155.09-.326.133-.494.133zM17.31 9.933c-.23 0-.452-.12-.575-.332-.184-.314-.074-.72.242-.902l3.438-1.984c.316-.183.72-.075.904.24s.073.722-.243.904L17.64 9.844c-.107.06-.22.09-.33.09zM7.187 21.752c-.155 0-.31-.037-.454-.12-.435-.25-.584-.808-.333-1.243l1.985-3.44c.25-.434.807-.582 1.243-.332.437.252.584.807.333 1.244L7.977 21.3c-.168.29-.474.452-.79.452zM15.127 7.753c-.11 0-.227-.03-.33-.09-.316-.183-.424-.587-.24-.902l1.984-3.438c.183-.316.587-.425.905-.242.316.183.424.588.24.904L15.7 7.422c-.122.212-.343.33-.573.33z"/></svg>