<svg xmlns="http://www.w3.org/2000/svg" width="24" height="24" viewBox="0 0 24 24"><path d="M12 22.977c-2.938 0-5.7-1.145-7.778-3.22C2.144 17.676 1 14.913 1 11.976c0-2.08.584-4.106 1.688-5.858 1.075-1.705 2.593-3.082 4.39-3.982l.925 1.842c-1.46.733-2.696 1.852-3.57 3.237-.896 1.422-1.37 3.067-1.37 4.76 0 4.927 4.01 8.937 8.937 8.937 4.928 0 8.938-4.01 8.938-8.938 0-1.69-.475-3.336-1.37-4.76-.874-1.384-2.108-2.503-3.57-3.236l.925-1.844c1.797.9 3.316 2.277 4.39 3.98C22.417 7.87 23 9.897 23 11.977c0 2.94-1.145 5.702-3.22 7.78-2.08 2.076-4.842 3.22-7.78 3.22z"/></svg>