<svg xmlns="http://www.w3.org/2000/svg" width="24" height="24" viewBox="0 0 24 24"><path d="M9.288 4.3c0-1.546 1.253-2.8 2.8-2.8s2.8 1.254 2.8 2.8c0 1.546-1.254 2.8-2.8 2.8s-2.8-1.254-2.8-2.8zm5.94 2.46c0-1.545 1.253-2.8 2.8-2.8s2.8 1.255 2.8 2.8c0 1.547-1.253 2.8-2.8 2.8-1.548 0-2.8-1.253-2.8-2.8zm3.86 5.94c0-.774.626-1.4 1.4-1.4s1.4.626 1.4 1.4c0 .773-.628 1.4-1.4 1.4s-1.4-.626-1.4-1.4zm-2.462 5.94c0-.773.63-1.4 1.4-1.4.773 0 1.4.627 1.4 1.4 0 .773-.627 1.4-1.4 1.4-.77 0-1.4-.627-1.4-1.4zm-5.938 2.46c0-.773.626-1.4 1.4-1.4.774 0 1.4.627 1.4 1.4 0 .774-.626 1.4-1.4 1.4-.774 0-1.4-.626-1.4-1.4zm-5.94-2.46c0-.773.627-1.4 1.4-1.4.773 0 1.4.627 1.4 1.4 0 .773-.626 1.4-1.4 1.4-.773 0-1.4-.627-1.4-1.4zm-.7-11.88c0-1.16.94-2.1 2.1-2.1 1.16 0 2.1.94 2.1 2.1 0 1.16-.94 2.1-2.1 2.1-1.16 0-2.1-.94-2.1-2.1zM2.112 12.7c0-.87.705-1.575 1.576-1.575.87 0 1.574.705 1.574 1.575s-.705 1.575-1.574 1.575c-.87 0-1.576-.706-1.576-1.575z"/></svg>