<svg xmlns="http://www.w3.org/2000/svg" width="24" height="24" viewBox="0 0 24 24"><path d="M12 1C5.925 1 1 5.925 1 12s4.925 11 11 11 11-4.925 11-11S18.075 1 12 1zm0 5.5c3.037 0 5.5 2.463 5.5 5.5s-2.463 5.5-5.5 5.5-5.5-2.463-5.5-5.5S8.963 6.5 12 6.5zm6.563 12.063c-1.753 1.753-4.084 2.72-6.563 2.72s-4.81-.967-6.563-2.72C3.684 16.81 2.72 14.48 2.72 12s.964-4.81 2.718-6.563l1.458 1.458c-2.815 2.814-2.815 7.394 0 10.208 1.363 1.364 3.176 2.114 5.104 2.114s3.74-.75 5.104-2.114c2.815-2.814 2.815-7.394 0-10.208l1.458-1.458c1.753 1.753 2.72 4.084 2.72 6.563s-.967 4.81-2.72 6.563z"/></svg>