<svg xmlns="http://www.w3.org/2000/svg" width="24" height="24" viewBox="0 0 24 24"><path d="M23 12.355c-.028-1.482-.35-2.96-.944-4.313-.592-1.353-1.452-2.578-2.507-3.59-1.056-1.014-2.306-1.815-3.66-2.344-1.352-.53-2.808-.784-4.244-.753-1.437.028-2.868.34-4.176.917-1.31.574-2.496 1.407-3.476 2.43-.98 1.023-1.755 2.233-2.265 3.544-.513 1.31-.758 2.717-.727 4.11.028 1.39.332 2.774.89 4.04.557 1.266 1.363 2.414 2.353 3.36.99.948 2.162 1.696 3.43 2.19 1.266.493 2.625.728 3.97.697 1.347-.028 2.683-.322 3.905-.862 1.224-.537 2.332-1.318 3.247-2.275.915-.956 1.638-2.09 2.112-3.313.287-.743.483-1.517.587-2.303l.084.002c.785 0 1.42-.634 1.42-1.42 0-.04-.002-.078-.005-.118H23zm-2.255 3.768c-.52 1.18-1.275 2.25-2.2 3.13-.924.883-2.017 1.58-3.198 2.036-1.18.457-2.446.675-3.7.645-1.255-.03-2.497-.305-3.632-.81-1.137-.502-2.166-1.23-3.016-2.122-.85-.893-1.52-1.946-1.96-3.083-.44-1.14-.648-2.355-.618-3.566.03-1.21.296-2.404.782-3.497.485-1.094 1.186-2.084 2.046-2.9.86-.817 1.875-1.46 2.97-1.883 1.093-.423 2.264-.62 3.428-.59 1.165.028 2.31.286 3.36.754 1.05.467 2 1.142 2.786 1.968s1.4 1.802 1.805 2.854.593 2.174.562 3.293h.005c-.004.04-.005.078-.005.12 0 .732.554 1.332 1.266 1.41-.14.772-.366 1.526-.683 2.24z"/></svg>