<svg xmlns="http://www.w3.org/2000/svg" width="24" height="24" viewBox="0 0 24 24"><circle cx="11.585" cy="3.868" r="2.868"/><path d="M17.836 12.47c0-1.3 1.053-2.353 2.352-2.353s2.352 1.053 2.352 2.352c0 1.298-1.053 2.35-2.352 2.35s-2.352-1.05-2.352-2.35z"/><circle cx="17.668" cy="18.552" r="2.131"/><circle cx="11.585" cy="21.07" r="1.93"/><circle cx="5.502" cy="18.552" r="1.748"/><circle cx="2.983" cy="12.469" r="1.583"/><path d="M4.07 6.387c0-.792.64-1.434 1.433-1.434s1.434.642 1.434 1.434c0 .792-.64 1.434-1.434 1.434-.793 0-1.434-.64-1.434-1.433z"/><circle cx="17.667" cy="6.387" r="2.597"/></svg>