<svg xmlns="http://www.w3.org/2000/svg" xmlns:xlink="http://www.w3.org/1999/xlink" version="1.1" id="Layer_1" x="0px" y="0px" width="20px" height="20px" viewBox="0 0 20 20" style="enable-background:new 0 0 20 20;" xml:space="preserve">
<g>
	<path d="M10 5.702c-2.346 0-4.252 1.906-4.252 4.253c0 2.3 1.9 4.3 4.3 4.254s4.253-1.909 4.253-4.254 C14.253 7.6 12.3 5.7 10 5.702z M10 12.932c-1.639 0-2.976-1.337-2.976-2.977c0-1.641 1.338-2.978 2.976-2.978 c1.639 0 3 1.3 3 2.978C12.976 11.6 11.6 12.9 10 12.932z"/>
	<path d="M18.593 8.267L16.466 7.94c-0.115-0.384-0.281-0.768-0.479-1.141c0.399-0.547 0.825-1.057 1.222-1.592 c0.058-0.081 0.093-0.163 0.093-0.267c0-0.092-0.023-0.188-0.081-0.256c-0.487-0.687-1.304-1.407-1.92-1.977 c-0.081-0.07-0.187-0.116-0.294-0.116c-0.104 0-0.209 0.035-0.276 0.105l-1.653 1.245c-0.336-0.173-0.685-0.314-1.044-0.429 l-0.323-2.142c-0.022-0.199-0.209-0.349-0.421-0.349H8.71c-0.21 0-0.374 0.139-0.419 0.325C8.105 2 8 2.8 8 3.5 c-0.362 0.116-0.722 0.268-1.06 0.441L5.29 2.708C5.196 2.6 5.1 2.6 5 2.592c-0.395 0-1.965 1.698-2.245 2.1 C2.685 4.8 2.6 4.8 2.6 4.941c0 0.1 0 0.2 0.1 0.279C3.186 5.7 3.6 6.3 4 6.8 C3.813 7.2 3.7 7.5 3.5 7.896L1.383 8.221C1.209 8.3 1.1 8.5 1.1 8.64v2.581c0 0.2 0.1 0.4 0.3 0.4 l2.127 0.316c0.117 0.4 0.3 0.8 0.5 1.153c-0.395 0.545-0.826 1.055-1.223 1.589c-0.057 0.082-0.093 0.163-0.093 0.3 c0 0.1 0 0.2 0.1 0.266c0.488 0.7 1.3 1.4 1.9 1.955c0.082 0.1 0.2 0.1 0.3 0.1 c0.106 0 0.211-0.035 0.292-0.105l1.64-1.244c0.337 0.2 0.7 0.3 1 0.43l0.325 2.139c0.021 0.2 0.2 0.3 0.4 0.3 h2.578c0.211 0 0.377-0.139 0.422-0.324c0.187-0.697 0.252-1.455 0.336-2.165c0.359-0.119 0.724-0.268 1.059-0.443l1.606 1.3 c0.089 0.1 0.2 0.1 0.3 0.105c0.397 0 1.967-1.714 2.245-2.085c0.071-0.079 0.103-0.161 0.103-0.266 c0-0.105-0.042-0.209-0.115-0.293c-0.429-0.524-0.848-1.035-1.244-1.605c0.183-0.338 0.328-0.685 0.454-1.059l2.151-0.324 c0.186-0.033 0.326-0.242 0.326-0.42V8.684C18.93 8.5 18.8 8.3 18.6 8.267z M16.325 10.739l-0.063 0.012l-0.768 0.1 l-0.249 0.736c-0.118 0.343-0.233 0.611-0.363 0.849l-0.384 0.697l0.451 0.653c0.023 0 0 0.1 0.1 0.1 c-0.317 0.407-0.682 0.771-1.089 1.089l-0.035-0.026l-0.652-0.508l-0.731 0.386c-0.259 0.137-0.548 0.257-0.858 0.359l-0.776 0.3 l-0.093 0.815l-0.005 0.027c-0.252 0.03-0.509 0.052-0.773 0.052c-0.258 0-0.511-0.02-0.761-0.05l-0.013-0.08l-0.119-0.776 l-0.747-0.242c-0.327-0.107-0.609-0.226-0.86-0.351l-0.714-0.369L6.146 14.95l-0.051 0.04c-0.406-0.316-0.773-0.676-1.092-1.081 c0.013-0.019 0.027-0.035 0.042-0.053L5.51 13.21l-0.373-0.702c-0.163-0.31-0.292-0.617-0.38-0.916l-0.233-0.78l-0.804-0.12 l-0.054-0.008c-0.028-0.239-0.044-0.482-0.044-0.73c0-0.267 0.021-0.531 0.054-0.789l0.061-0.009l0.792-0.118l0.237-0.765 c0.084-0.275 0.204-0.553 0.363-0.849l0.37-0.694L5.041 6.088C5.024 6.1 5 6 5 6 C5.305 5.6 5.7 5.2 6.1 4.93l0.039 0.029l0.645 0.5l0.723-0.375c0.272-0.142 0.57-0.266 0.86-0.359l0.784-0.25l0.095-0.82 l0.002-0.03C9.479 3.6 9.7 3.6 10 3.574c0.257 0 0.5 0 0.8 0.05l0.014 0.08l0.12 0.782l0.75 0.2 c0.311 0.1 0.6 0.2 0.9 0.349l0.716 0.37l0.64-0.483l0.059-0.043C14.313 5.2 14.7 5.6 15 6 c-0.014 0.02-0.029 0.037-0.042 0.057l-0.467 0.642l0.371 0.703c0.166 0.3 0.3 0.6 0.4 0.917l0.235 0.766l0.791 0.1 l0.058 0.009c0.027 0.2 0 0.5 0 0.743C16.378 10.2 16.4 10.5 16.3 10.739z"/>
</g>
</svg>
