<svg xmlns="http://www.w3.org/2000/svg" xmlns:xlink="http://www.w3.org/1999/xlink" version="1.1" x="0px" y="0px" width="16px" height="16px" viewBox="0 0 16 16" enable-background="new 0 0 16 16" xml:space="preserve"><g><path d="M8 4.643c-1.826 0-3.31 1.484-3.31 3.311c0 1.825 1.484 3.311 3.31 3.311c1.826 0 3.311-1.485 3.311-3.311 C11.311 6.127 9.826 4.643 8 4.643z M8 10.271c-1.276 0-2.317-1.041-2.317-2.317c0-1.277 1.042-2.318 2.317-2.318 c1.275 0 2.318 1.042 2.318 2.318C10.316 9.229 9.275 10.271 8 10.271z"/><path d="M14.689 6.64l-1.656-0.254c-0.09-0.299-0.219-0.598-0.373-0.888c0.311-0.426 0.643-0.823 0.951-1.239 c0.045-0.063 0.072-0.127 0.072-0.208c0-0.072-0.018-0.146-0.063-0.2c-0.379-0.534-1.014-1.095-1.494-1.539 c-0.063-0.054-0.145-0.09-0.229-0.09c-0.08 0-0.162 0.027-0.215 0.082l-1.287 0.969c-0.262-0.135-0.533-0.244-0.813-0.334 L9.33 1.272C9.313 1.117 9.168 1 9.003 1H6.996C6.832 1 6.705 1.108 6.67 1.253c-0.145 0.543-0.2 1.133-0.263 1.685 c-0.282 0.09-0.562 0.208-0.825 0.343L4.333 2.313C4.26 2.258 4.179 2.222 4.098 2.222c-0.307 0-1.53 1.322-1.748 1.62 C2.305 3.906 2.268 3.97 2.268 4.051s0.038 0.153 0.091 0.217C2.695 4.676 3.02 5.083 3.329 5.517 C3.183 5.79 3.065 6.061 2.975 6.351L1.292 6.604C1.156 6.63 1.047 6.794 1.047 6.93v2.009c0 0.154 0.108 0.3 0.264 0.325 l1.656 0.246c0.091 0.308 0.217 0.605 0.372 0.897c-0.308 0.425-0.643 0.821-0.952 1.237c-0.044 0.064-0.072 0.128-0.072 0.209 c0 0.071 0.018 0.146 0.063 0.207c0.38 0.525 1.013 1.087 1.493 1.522c0.064 0.063 0.146 0.1 0.228 0.1 c0.083 0 0.164-0.027 0.227-0.082l1.277-0.969c0.262 0.135 0.535 0.242 0.815 0.335l0.253 1.665 c0.016 0.155 0.162 0.272 0.325 0.272h2.007c0.164 0 0.293-0.108 0.328-0.253c0.145-0.543 0.197-1.132 0.262-1.685 c0.279-0.093 0.563-0.208 0.824-0.345l1.25 0.979c0.07 0.045 0.154 0.082 0.234 0.082c0.309 0 1.531-1.334 1.748-1.623 c0.055-0.061 0.08-0.125 0.08-0.206c0-0.082-0.033-0.163-0.09-0.228c-0.334-0.408-0.66-0.806-0.969-1.25 c0.143-0.263 0.256-0.533 0.354-0.824l1.674-0.252c0.145-0.026 0.254-0.189 0.254-0.327V6.965 C14.951 6.812 14.844 6.667 14.689 6.64z M12.924 8.565l-0.049 0.008l-0.598 0.09l-0.193 0.573 c-0.092 0.267-0.182 0.476-0.283 0.661l-0.299 0.543l0.352 0.508c0.018 0.023 0.035 0.043 0.051 0.066 c-0.248 0.316-0.531 0.6-0.848 0.848l-0.027-0.021l-0.508-0.396l-0.57 0.3c-0.201 0.107-0.426 0.201-0.668 0.281l-0.604 0.197 l-0.073 0.634l-0.003 0.022c-0.197 0.024-0.397 0.04-0.602 0.04c-0.201 0-0.398-0.015-0.593-0.038l-0.01-0.063l-0.093-0.604 l-0.581-0.189c-0.255-0.083-0.474-0.175-0.67-0.273l-0.556-0.287L5 11.843l-0.04 0.031c-0.316-0.246-0.602-0.527-0.85-0.842 c0.01-0.014 0.021-0.027 0.032-0.041l0.363-0.503l-0.29-0.547C4.088 9.7 3.988 9.461 3.919 9.229L3.738 8.621L3.112 8.528 L3.07 8.522C3.048 8.335 3.035 8.146 3.035 7.953c0-0.208 0.017-0.413 0.042-0.614l0.047-0.007L3.74 7.24l0.185-0.595 C3.99 6.431 4.083 6.215 4.207 5.984l0.288-0.54l-0.356-0.5c-0.013-0.02-0.028-0.037-0.041-0.056 C4.345 4.574 4.63 4.29 4.945 4.042l0.03 0.023l0.502 0.389l0.563-0.292c0.212-0.11 0.444-0.207 0.67-0.279l0.61-0.195L7.394 3.05 l0.002-0.023C7.594 3.002 7.795 2.987 8 2.987c0.2 0 0.397 0.015 0.591 0.039l0.011 0.062l0.093 0.609l0.585 0.188 c0.242 0.079 0.459 0.167 0.662 0.271l0.557 0.288l0.498-0.376l0.045-0.034c0.316 0.246 0.602 0.527 0.85 0.841 c-0.01 0.015-0.023 0.029-0.033 0.044l-0.363 0.5l0.289 0.547c0.129 0.243 0.229 0.483 0.301 0.713l0.184 0.597l0.615 0.095 l0.045 0.007c0.021 0.19 0.037 0.382 0.037 0.578C12.965 8.16 12.949 8.364 12.924 8.565z"/></g></svg>