<svg xmlns="http://www.w3.org/2000/svg" xmlns:xlink="http://www.w3.org/1999/xlink" version="1.1" x="0px" y="0px" width="24px" height="24px" viewBox="0 0 24 24" enable-background="new 0 0 24 24" xml:space="preserve"><g><path d="M12.007 6.365c-3.132 0-5.679 2.547-5.679 5.68c0 3.132 2.547 5.68 5.679 5.68c3.133 0 5.681-2.548 5.681-5.68 C17.688 8.913 15.14 6.365 12.007 6.365z M12.007 16.021c-2.189 0-3.976-1.786-3.976-3.976c0-2.19 1.788-3.976 3.976-3.976 c2.19 0 3.977 1.787 3.977 3.976C15.983 14.234 14.197 16.021 12.007 16.021z"/><path d="M23.486 9.792l-2.842-0.436c-0.156-0.513-0.377-1.026-0.639-1.523c0.53-0.73 1.102-1.412 1.63-2.126 c0.077-0.109 0.123-0.218 0.123-0.358c0-0.124-0.03-0.249-0.105-0.342c-0.651-0.917-1.741-1.879-2.563-2.64 c-0.109-0.093-0.25-0.155-0.392-0.155c-0.139 0-0.278 0.046-0.371 0.14l-2.206 1.663c-0.449-0.232-0.915-0.419-1.396-0.574 L14.29 0.583c-0.029-0.266-0.279-0.467-0.561-0.467h-3.445c-0.281 0-0.499 0.186-0.559 0.434C9.477 1.482 9.382 2.493 9.274 3.441 C8.791 3.595 8.31 3.797 7.859 4.03L5.717 2.368C5.591 2.275 5.452 2.212 5.313 2.212c-0.527 0-2.624 2.268-2.998 2.779 c-0.078 0.111-0.141 0.22-0.141 0.359S2.238 5.613 2.33 5.723C2.906 6.423 3.464 7.12 3.993 7.866 c-0.25 0.467-0.452 0.933-0.607 1.43L0.498 9.731c-0.233 0.045-0.419 0.325-0.419 0.559v3.448c0 0.265 0.186 0.514 0.452 0.558 l2.841 0.422c0.157 0.528 0.373 1.039 0.638 1.539c-0.529 0.729-1.103 1.41-1.633 2.124c-0.076 0.109-0.123 0.218-0.123 0.358 c0 0.123 0.03 0.25 0.109 0.355c0.652 0.902 1.738 1.864 2.562 2.611c0.109 0.108 0.25 0.172 0.39 0.172 c0.142 0 0.28-0.047 0.389-0.14l2.191-1.663c0.45 0.231 0.917 0.416 1.399 0.575l0.434 2.857c0.028 0.266 0.277 0.467 0.558 0.467 h3.445c0.281 0 0.501-0.187 0.561-0.435c0.251-0.931 0.341-1.941 0.45-2.889c0.481-0.159 0.965-0.357 1.414-0.593l2.144 1.68 c0.123 0.076 0.266 0.14 0.402 0.14c0.533 0 2.627-2.287 3-2.783c0.095-0.105 0.139-0.216 0.139-0.355 c0-0.141-0.06-0.279-0.156-0.39c-0.574-0.699-1.132-1.381-1.662-2.144c0.247-0.451 0.439-0.915 0.607-1.415l2.873-0.432 c0.248-0.045 0.435-0.325 0.435-0.56v-3.447C23.936 10.087 23.749 9.839 23.486 9.792z M20.456 13.096l-0.083 0.013l-1.027 0.154 l-0.331 0.983c-0.158 0.458-0.311 0.817-0.485 1.136l-0.515 0.93l0.605 0.872c0.028 0.041 0.059 0.074 0.087 0.114 c-0.425 0.542-0.913 1.029-1.456 1.454l-0.047-0.037l-0.868-0.68l-0.978 0.514c-0.346 0.185-0.732 0.346-1.149 0.482l-1.037 0.34 l-0.126 1.087l-0.004 0.039c-0.339 0.041-0.683 0.068-1.033 0.068c-0.345 0-0.683-0.026-1.017-0.066l-0.017-0.107l-0.159-1.034 L9.82 19.031c-0.438-0.143-0.813-0.298-1.15-0.468L7.716 18.07l-0.855 0.648l-0.069 0.053c-0.542-0.422-1.033-0.904-1.459-1.443 c0.018-0.023 0.037-0.047 0.055-0.071l0.624-0.862l-0.498-0.938c-0.218-0.415-0.39-0.825-0.507-1.223l-0.311-1.042l-1.074-0.159 l-0.073-0.011c-0.037-0.321-0.06-0.646-0.06-0.977c0-0.357 0.029-0.708 0.072-1.053l0.08-0.012l1.057-0.158l0.317-1.02 c0.113-0.369 0.273-0.739 0.484-1.135l0.494-0.926L5.383 6.883C5.36 6.85 5.335 6.821 5.312 6.788 C5.736 6.247 6.225 5.76 6.766 5.336l0.051 0.04l0.862 0.668l0.967-0.502C9.01 5.353 9.407 5.188 9.795 5.063l1.047-0.335 l0.125-1.094l0.004-0.04c0.34-0.042 0.685-0.069 1.037-0.069c0.344 0 0.681 0.026 1.014 0.066l0.017 0.106l0.159 1.045l1.005 0.322 c0.417 0.135 0.789 0.286 1.136 0.465l0.954 0.493l0.856-0.645l0.076-0.058c0.543 0.421 1.033 0.904 1.459 1.443 c-0.019 0.026-0.039 0.05-0.058 0.076l-0.622 0.857l0.495 0.938c0.221 0.417 0.393 0.83 0.516 1.224l0.314 1.025l1.058 0.162 l0.076 0.012c0.038 0.326 0.063 0.655 0.063 0.991C20.527 12.401 20.498 12.751 20.456 13.096z"/></g></svg>