<svg xmlns="http://www.w3.org/2000/svg" width="24" height="24" viewBox="0 0 24 24"><path d="M21.306 11.245c0-1.002-.818-1.794-1.795-1.794h-2.93c-.13 0-2.877.106-3.38-.21-.5-.29-.552-2.666-.208-3.668.317-.898.58-2.64-.423-3.96-.61-.792-1.505-.66-2.06-.45-.61.213-.37 1.32-.265 2.272.105.924-.37 2.455-1.24 3.247s-.766 1.53-1.188 2.27c-.423.74-1.083 1.372-1.638 2.27-.556.898-1.795 1.082-3.485 1.03v9.317s2.455 0 3.01.053c.818.08 1.9.342 2.956.687 1.083.344 3.38.686 3.695.686 2.35.08 4.594-.475 5.49-.633.898-.157 1.584-1.08 1.426-2.03-.053-.292-.157-.555-.315-.767.16-.053.29-.13.423-.238.58-.315.95-.896.95-1.583 0-.554-.237-1.028-.633-1.372.104-.027.21-.08.315-.132.714-.238 1.24-.924 1.24-1.717 0-.71-.42-1.345-1.055-1.635.054-.025.105-.052.16-.105.395-.238.685-.608.817-1.056.053-.158.08-.29.08-.475v-.054l.054.05z"/></svg>