<svg version="1.1" xmlns="http://www.w3.org/2000/svg" xmlns:xlink="http://www.w3.org/1999/xlink" width="32" height="32" viewBox="0 0 32 32">
<path  d="M4.938 11c-0.188 0.188-0.25 0.438-0.375 0.688-0.063 0.313-0.063 0.563-0.063 0.813s0 0.375-0.063 0.375c-0.063 0.063-0.25 0.188-0.563 0.5-0.313 0.25-0.5 0.438-0.563 0.5-0.375 0.313-0.688 0.25-0.938-0.125 0 0-2.25-2.438-2.25-2.438-0.188-0.25-0.188-0.5 0.063-0.75 0.063-0.063 0.25-0.188 0.625-0.438 0.313-0.25 0.5-0.438 0.625-0.5 0.125-0.125 0.375-0.188 0.875-0.188 0.438 0 0.813-0.188 1.188-0.5 0.25-0.25 0.438-0.688 0.563-1.188 0.063-0.5 0.188-0.813 0.313-0.938 0.063 0 0.125-0.125 0.313-0.25 0.125-0.125 0.375-0.375 0.813-0.688 0.375-0.313 0.813-0.688 1.313-1 2.875-1.938 4.813-2.938 5.938-3.063 2.625 0 4.188 0 4.75 0.063 0.25 0 0.188 0.063-0.25 0.25-2.563 1.125-4.188 1.938-4.875 2.438-1.688 1.188-2.125 2.375-1.188 3.625 0.75 1 1.188 1.5 1.25 1.563 0.188 0.125 0.125 0.313-0.063 0.438-0.063 0.063-0.438 0.375-1.25 1.125-0.75 0.688-1.125 1.063-1.188 1.125-0.313 0.125-0.5 0.188-0.563 0.125-0.938-1.063-1.688-1.688-2.313-1.938-0.563-0.25-1.313-0.125-2.125 0.375zM14.125 11.813c0 0 13.063 15.25 13.063 15.25 0.438 0.5 0.375 0.875-0.063 1.25 0 0-1.5 1.313-1.5 1.313-0.5 0.313-0.875 0.25-1.25-0.125 0 0-13.25-15.125-13.25-15.125-0.125-0.125-0.125-0.375 0-0.625 0 0 2.313-2 2.313-2 0.25-0.125 0.5-0.125 0.688 0.063zM31.813 5.375c0.375 2.25 0.188 4-0.5 5.313-1.063 1.875-2.688 2.563-4.938 2-1.188-0.25-2.25 0.063-3.188 1 0 0-2.625 2.5-2.625 2.5s-2.188-2.5-2.188-2.5c0 0 2.188-2.25 2.188-2.25 0.5-0.5 0.813-1.063 1-1.688 0.125-0.625 0.188-1.313 0.188-2.063s0-1.375 0.125-1.875c0.313-1.188 1.75-2.375 4.5-3.563 0.25-0.125 0.438-0.125 0.563 0.063s0.188 0.375 0.063 0.5c-0.25 0.25-0.75 1.125-1.438 2.563-0.313 0.188-0.438 0.563-0.375 1.125 0 0.5 0.438 1.125 1.25 1.688 1.25 0.875 2.25 0.625 3.063-0.688 0.125-0.25 0.438-0.688 0.875-1.313 0.375-0.625 0.625-1 0.688-1.063 0.063-0.188 0.25-0.313 0.438-0.313 0.188 0.063 0.313 0.25 0.313 0.563zM4.375 27.25c0 0 8.125-7.938 8.125-7.938s2.438 2.75 2.438 2.75c0 0-7.875 7.75-7.875 7.75-0.438 0.438-0.813 0.5-1.25 0.125 0 0-1.438-1.438-1.438-1.438-0.5-0.375-0.5-0.813 0-1.25z"></path>
</svg>
