<svg version="1.1" xmlns="http://www.w3.org/2000/svg" xmlns:xlink="http://www.w3.org/1999/xlink" width="32" height="32" viewBox="0 0 32 32">
<path  d="M28.313 8.375c-0.875 0.375-1.875 0.688-2.875 0.75 1-0.625 1.813-1.563 2.188-2.75-0.938 0.563-2.063 1-3.188 1.188-0.938-0.938-2.25-1.563-3.688-1.563-2.813 0-5.063 2.25-5.063 5.063 0 0.375 0.063 0.75 0.125 1.125-4.188-0.188-7.938-2.188-10.438-5.25-0.438 0.75-0.688 1.563-0.688 2.5 0 1.75 0.938 3.313 2.25 4.25-0.813-0.063-1.563-0.25-2.25-0.688 0 0.063 0 0.063 0 0.125 0 2.438 1.75 4.438 4.063 4.938-0.438 0.125-0.875 0.188-1.375 0.188-0.313 0-0.625-0.063-0.938-0.125 0.625 2 2.5 3.5 4.75 3.5-1.75 1.375-3.938 2.188-6.313 2.188-0.375 0-0.813 0-1.188-0.063 2.25 1.438 4.875 2.25 7.75 2.25 9.313 0 14.375-7.688 14.375-14.375 0-0.188 0-0.438 0-0.625 1-0.75 1.813-1.625 2.5-2.625z"></path>
</svg>
