<svg version="1.1" xmlns="http://www.w3.org/2000/svg" xmlns:xlink="http://www.w3.org/1999/xlink" width="32" height="32" viewBox="0 0 32 32">
<path  d="M16 0.625c4.25 0 7.875 1.5 10.875 4.5s4.5 6.625 4.5 10.875c0 4.25-1.5 7.813-4.5 10.875-3 3-6.625 4.5-10.875 4.5s-7.813-1.5-10.875-4.5c-3-3.063-4.5-6.625-4.5-10.875s1.5-7.875 4.5-10.875c3.063-3 6.625-4.5 10.875-4.5zM22.25 13.188c0.688-0.5 1.125-1 1.5-1.563-0.688 0.25-1.25 0.438-1.75 0.5 0.625-0.438 1.125-0.938 1.375-1.688-0.625 0.313-1.313 0.563-1.938 0.688-0.625-0.563-1.313-0.875-2.25-0.875-0.813 0-1.563 0.313-2.125 0.875-0.563 0.625-0.875 1.313-0.875 2.125 0 0.063 0 0.125 0.063 0.313 0 0.188 0 0.313 0 0.375-2.563-0.125-4.625-1.188-6.188-3.188-0.313 0.5-0.438 1-0.438 1.563 0 1.063 0.438 1.875 1.375 2.5-0.563 0-1-0.188-1.375-0.438 0 0 0 0.063 0 0.063 0 0.75 0.188 1.375 0.625 1.938 0.5 0.563 1.063 0.875 1.813 1.063-0.375 0.063-0.625 0.125-0.813 0.125-0.25 0-0.438-0.063-0.563-0.063 0.438 1.375 1.375 2.063 2.813 2.063-1.063 0.875-2.313 1.313-3.75 1.313 0 0-0.75 0-0.75 0 1.5 0.875 3 1.313 4.625 1.313 2.625 0 4.688-0.875 6.25-2.625 1.625-1.75 2.375-3.75 2.375-6 0 0 0-0.375 0-0.375z"></path>
</svg>
