<svg version="1.1" xmlns="http://www.w3.org/2000/svg" xmlns:xlink="http://www.w3.org/1999/xlink" width="32" height="32" viewBox="0 0 32 32">
<path  d="M25.25 4.5h-18.5c-1.25 0-2.25 1-2.25 2.25v18.5c0 1.25 1 2.25 2.25 2.25h18.5c1.25 0 2.25-1 2.25-2.25v-18.5c0-1.25-1-2.25-2.25-2.25zM21.375 23.75c-0.75 0.313-1.438 0.563-2.063 0.75-0.563 0.125-1.25 0.188-1.938 0.188-0.813 0-1.5-0.125-2.125-0.313-0.563-0.188-1.125-0.5-1.563-0.875-0.375-0.375-0.688-0.75-0.875-1.188-0.188-0.375-0.25-1-0.25-1.813v-6.063h-1.938v-2.438c0.688-0.25 1.313-0.563 1.75-1 0.5-0.375 0.875-0.875 1.188-1.438 0.313-0.625 0.5-1.375 0.625-2.25h2.438v4.375h4.125v2.75h-4.125v4.438c0 1 0.063 1.688 0.188 1.938 0.125 0.313 0.313 0.5 0.625 0.688 0.375 0.25 0.813 0.375 1.313 0.375 0.875 0 1.75-0.313 2.625-0.875v2.75z"></path>
</svg>
