<svg version="1.1" xmlns="http://www.w3.org/2000/svg" xmlns:xlink="http://www.w3.org/1999/xlink" width="32" height="32" viewBox="0 0 32 32">
<path  d="M24.688 18.938l-4.5-2.125-1.875-0.875c0.063 0 0.063-0.063 0.125-0.063h2.5c0.375 0 0.688-0.313 0.688-0.688v-1.875c-0.063-2.438-0.875-4.625-2.125-6.063-0.875-1.125-2.125-1.813-3.5-1.813-1.5 0-2.875 0.813-3.75 2.125-1.063 1.438-1.813 3.438-1.875 5.75v0 1.875c0 0.375 0.313 0.688 0.688 0.688h2.563c0 0 0.063 0.063 0.125 0.063l-1.813 0.875-4.625 2.125c-0.375 0.188-0.625 0.563-0.625 1.063-0.063 0.063-0.063 0.125-0.063 0.188v5.125c0 0.688 0.5 1.25 1.063 1.25h16.625c0.563 0 1.063-0.563 1.063-1.25v-5.125c0-0.25-0.063-0.5-0.188-0.688-0.125-0.25-0.313-0.438-0.5-0.563zM8.188 16.813v-1.938c0.125-2.625 0.813-5 1.875-6.875-0.5-0.313-1.125-0.5-1.75-0.5-2.125 0-3.875 2-3.875 4.438 0 1.75 0.875 3.25 2.063 4l-5.188 2.438c-0.313 0.188-0.563 0.5-0.563 0.938v4.125c0 0.563 0.375 1 0.875 1h3.438v-4.313c0-1.125 0.625-2.125 1.625-2.625zM30.688 18.438l-5.188-2.438c1.188-0.75 2.063-2.25 2.063-4 0-2.438-1.75-4.5-3.875-4.5-0.625 0-1.25 0.25-1.75 0.563 1.063 1.875 1.75 4.25 1.875 6.875v0 1.938l1.5 0.688c1 0.5 1.625 1.5 1.625 2.625v4.313h3.438c0.5 0 0.875-0.438 0.875-1v-4.125c0-0.438-0.25-0.75-0.563-0.938z"></path>
</svg>
