<svg xmlns="http://www.w3.org/2000/svg" xmlns:xlink="http://www.w3.org/1999/xlink" version="1.1" x="0px" y="0px" width="24px" height="24px" viewBox="0 0 24 24" enable-background="new 0 0 24 24" xml:space="preserve"><path d="M9.875 12.438c2.21 0 4-1.79 4-4s-1.79-4-4-4s-4 1.79-4 4S7.665 12.438 9.875 12.438z M9.875 14.438c-2.67 0-8 1.34-8 4v2 h16v-2C17.875 15.777 12.545 14.438 9.875 14.438z"/><path d="M21.526 11.854c0.017-0.132 0.029-0.265 0.029-0.405c0-0.141-0.013-0.273-0.029-0.406l0.873-0.682 c0.078-0.063 0.099-0.174 0.05-0.266l-0.828-1.431c-0.049-0.091-0.16-0.124-0.252-0.091L20.34 8.987 c-0.216-0.165-0.447-0.301-0.699-0.405l-0.157-1.096c-0.013-0.099-0.1-0.174-0.203-0.174h-1.654c-0.104 0-0.19 0.075-0.203 0.174 l-0.156 1.096c-0.253 0.104-0.484 0.244-0.7 0.405l-1.029-0.413c-0.095-0.038-0.202 0-0.252 0.091l-0.828 1.431 c-0.054 0.091-0.028 0.203 0.051 0.266l0.872 0.682c-0.018 0.132-0.028 0.269-0.028 0.406c0 0.136 0.011 0.272 0.028 0.405 l-0.872 0.683c-0.079 0.062-0.1 0.173-0.051 0.265l0.828 1.431c0.05 0.092 0.162 0.123 0.252 0.092l1.029-0.414 c0.216 0.165 0.447 0.302 0.7 0.404l0.156 1.098c0.013 0.099 0.1 0.173 0.203 0.173h1.654c0.104 0 0.19-0.074 0.203-0.173 l0.157-1.098c0.252-0.103 0.483-0.244 0.699-0.404l1.029 0.414c0.095 0.036 0.203 0 0.252-0.092l0.828-1.431 c0.049-0.092 0.028-0.203-0.05-0.265L21.526 11.854z M18.452 12.896c-0.798 0-1.446-0.649-1.446-1.447s0.648-1.448 1.446-1.448 c0.799 0 1.448 0.65 1.448 1.448S19.251 12.896 18.452 12.896z"/></svg>