<svg xmlns="http://www.w3.org/2000/svg" xmlns:xlink="http://www.w3.org/1999/xlink" version="1.1" x="0px" y="0px" width="20px" height="20px" viewBox="0 0 20 20" xml:space="preserve" class="style0"><style>.style0{enable-background:	new 0 0 20 20;}</style><path d="M10 0.997C5.03 0.997 0.997 5.03 0.997 10c0 4.969 4.033 9.003 9.003 9.003c4.969 0 9.003-4.034 9.003-9.003 C19.003 5.03 14.969 0.997 10 0.997z M9.1 17.139C5.543 16.697 2.798 13.673 2.798 10c0-0.558 0.072-1.089 0.189-1.611l4.313 4.313 v0.9c0 0.989 0.81 1.8 1.8 1.8V17.139z M15.313 14.854c-0.234-0.73-0.9-1.252-1.711-1.252h-0.9V10.9c0-0.495-0.405-0.9-0.9-0.9 H6.399V8.199h1.8c0.495 0 0.9-0.405 0.9-0.9V5.499H10.9c0.99 0 1.801-0.81 1.801-1.801V3.329C15.339 4.4 17.202 6.984 17.202 10 C17.202 11.873 16.482 13.575 15.313 14.854z"/></svg>