<svg xmlns="http://www.w3.org/2000/svg" xmlns:xlink="http://www.w3.org/1999/xlink" version="1.1" id="Layer_1" x="0px" y="0px" width="20px" height="20px" viewBox="0 0 20 20" xml:space="preserve" class="style0"><style>.style0{enable-background:	new 0 0 20 20;}.style1{opacity:	0.5;fill:	#FFFFFF;}</style><path d="M13.367 0.998c-2.59 0-4.69 2.1-4.69 4.689c0 2.59 2.1 4.69 4.69 4.69s4.689-2.1 4.689-4.69 C18.057 3.098 15.957 0.998 13.367 0.998z M10.093 7.036c0.025 0.098 0.063 0.248 0.063 0.375h-0.018 C9.833 6.872 9.646 6.26 9.646 5.598c0-2.05 1.663-3.712 3.713-3.712c0.463 0 0.908 0.076 1.285 0.25 C12.104 2.325 10.093 4.444 10.093 7.036z"/><g><polygon points="15.401,10.351 15.402,10.354 15.41,10.351"/><path d="M15.402 10.354c-0.604 0.251-1.299 0.402-2.039 0.405c-2.798 0-5.068-2.27-5.068-5.068c0-0.211 0.013-0.417 0.038-0.622 c-3.721 0.152-6.69 3.215-6.69 6.973c0 3.857 3.15 6.954 7.004 6.954c3.856 0 6.981-3.124 6.981-6.98 C15.628 11.411 15.531 10.882 15.402 10.354z M3.5 13.503h0.017c0 0.529 0.076 0.983 0.151 1.497 C3.117 14.113 2.8 13.068 2.8 11.95c0-2.699 1.851-4.967 4.352-5.602c0.037 0.303 0.076 0.604 0.15 0.912 C5.071 8.419 3.5 10.764 3.5 13.503z"/></g><path d="M10.093 7.411C9.789 6.872 9.602 6.26 9.602 5.598c0-2.05 1.662-3.712 3.713-3.712 c0.463 0 0.907 0.076 1.285 0.25c-2.542 0.189-4.552 2.309-4.552 4.9c0.026 0.098 0.063 0.248 0.063 0.375H10.093z" class="style1"/><path d="M3.472 13.503c0 0.529 0.076 0.983 0.151 1.497c-0.551-0.887-0.869-1.932-0.869-3.05 c0-2.699 1.851-4.967 4.352-5.602c0.038 0.303 0.076 0.604 0.151 0.912c-2.231 1.158-3.803 3.503-3.803 6.242H3.472z" class="style1"/></svg>