<svg xmlns="http://www.w3.org/2000/svg" width="24" height="24" viewBox="0 0 24 24"><path d="M16.324 1.01c-3.164 0-5.73 2.565-5.73 5.728 0 3.164 2.566 5.73 5.73 5.73 3.165 0 5.73-2.566 5.73-5.73 0-3.163-2.565-5.73-5.73-5.73zm-4 7.376c.03.12.076.303.076.458h-.02c-.374-.66-.603-1.407-.603-2.215 0-2.506 2.03-4.537 4.537-4.537.566 0 1.11.093 1.57.306-3.104.23-5.56 2.82-5.56 5.986zM18.81 12.436l.002.004.01-.004"/><path d="M18.812 12.44c-.74.307-1.587.49-2.492.495-3.42 0-6.192-2.773-6.192-6.192 0-.258.016-.51.047-.76C5.627 6.168 2 9.91 2 14.503c0 4.71 3.85 8.495 8.557 8.495 4.71 0 8.53-3.815 8.53-8.528 0-.738-.118-1.385-.275-2.03zM4.27 16.288h.02c0 .646.093 1.2.185 1.827-.673-1.083-1.06-2.36-1.06-3.725 0-3.298 2.26-6.07 5.316-6.845.046.37.094.738.184 1.114-2.726 1.416-4.645 4.28-4.645 7.628z"/><path opacity=".5" d="M12.324 8.844c-.37-.66-.6-1.407-.6-2.215 0-2.506 2.03-4.537 4.535-4.537.565 0 1.11.093 1.57.306-3.104.23-5.56 2.82-5.56 5.986.03.12.076.303.076.458h-.022zM4.235 16.288c0 .646.092 1.2.184 1.827-.674-1.083-1.063-2.36-1.063-3.725 0-3.298 2.26-6.07 5.317-6.845.047.37.093.738.185 1.114-2.727 1.414-4.647 4.28-4.647 7.625h.022v.003z"/></svg>