<svg xmlns="http://www.w3.org/2000/svg" xmlns:xlink="http://www.w3.org/1999/xlink" version="1.1" x="0px" y="0px" width="20px" height="20px" viewBox="0 0 20 20" xml:space="preserve" class="style0"><style>.style0{enable-background:	new 0 0 20 20;}</style><g><path d="M17.317 2h-4.485c-0.93 0-1.683 0.752-1.683 1.682v2.336c-0.685-0.186-1.558-0.204-2.243-0.041V3.682 C8.907 2.752 8.154 2 7.224 2H2.738c-0.93 0-1.682 0.752-1.682 1.682v7.852c0 0.928 0.752 1.682 1.682 1.682h4.486 c0.931 0 1.683-0.754 1.683-1.682V7.156c0.74-0.207 1.551-0.167 2.243 0.04v4.338c0 0.928 0.753 1.682 1.683 1.682h4.485 c0.93 0 1.683-0.754 1.683-1.682V3.682C19 2.752 18.248 2 17.317 2z M7.785 10.748c0 0.744-0.537 1.347-1.201 1.347H3.378 c-0.664 0-1.201-0.603-1.201-1.347V4.467c0-0.743 0.537-1.345 1.201-1.345h3.205c0.665 0 1.202 0.602 1.202 1.345V10.748z M17.879 10.748c0 0.744-0.536 1.347-1.199 1.347h-3.206c-0.665 0-1.202-0.603-1.202-1.347V4.467c0-0.743 0.537-1.345 1.201-1.345 h3.204c0.666 0 1.203 0.602 1.203 1.345L17.879 10.748L17.879 10.748z"/><path d="M5.542 7.608c-0.619 0-1.121 0.502-1.121 1.121v1.123c0 0.618 0.502 1.121 1.121 1.121s1.122-0.503 1.122-1.121V8.729 C6.663 8.11 6.16 7.608 5.542 7.608z"/><path d="M15.637 7.608c-0.621 0-1.123 0.502-1.123 1.121v1.123c0 0.618 0.502 1.121 1.123 1.121c0.619 0 1.119-0.503 1.119-1.121 V8.729C16.756 8.11 16.256 7.608 15.637 7.608z"/><path d="M17.879 14.618c-3.026 3.681-12.897 3.408-15.702 0c-0.199-0.242-0.217 1.148 0 1.362c3.053 3.004 12.925 3.375 15.702 0 C18.077 15.741 18.077 14.376 17.879 14.618z"/></g></svg>