<svg xmlns="http://www.w3.org/2000/svg" width="102" height="25" viewBox="0 0 102 25"><path d="M1 23.514l1.79-1.584s1.136-1.113 1.618-1.756l5.61-7.366-3.855-5.852c-.298-.436-.614-.913-.946-1.43-.333-.515-.69-1.015-1.068-1.497-.38-.49-.77-.95-1.17-1.38-.41-.44-.82-.81-1.26-1.1h3.24c.36 0 .7.03.99.08.3.05.54.23.72.53l4.37 7.16c.18.3.33.52.43.68.1.16.21.24.33.24.06 0 .14-.04.22-.12.08-.08.16-.17.26-.28.09-.11.17-.2.24-.3.07-.09.11-.16.14-.21.27-.48.62-1.04 1.05-1.69.42-.64.83-1.3 1.22-1.96s.72-1.3 1-1.9c.27-.6.41-1.09.41-1.48 0-.14-.01-.28-.04-.41-.03-.14-.06-.27-.11-.38h4.1c-.1.07-.19.14-.28.22-.09.08-.17.18-.24.29l-7.18 9.38 6.19 9.02c.46.66.9 1.23 1.34 1.68s.91.85 1.44 1.17v.21h-3.13c-.3 0-.55-.01-.74-.04-.2-.026-.38-.07-.54-.14-.16-.07-.31-.17-.45-.31s-.28-.33-.44-.587l-4.64-6.986c-.02-.05-.07-.12-.14-.225l-.22-.328c-.08-.118-.17-.21-.26-.29-.09-.08-.17-.12-.24-.12-.19 0-.37.13-.55.39-.19.26-.31.45-.38.56-.35.59-.75 1.22-1.23 1.89s-.92 1.31-1.35 1.94c-.42.63-.78 1.2-1.08 1.72-.3.52-.45.92-.45 1.22 0 .25.05.476.16.67.103.194.21.395.33.603H1zm42.564-6.8c-.47 1.458-1.165 2.73-2.083 3.82-.91 1.09-2.06 1.95-3.42 2.583-1.36.63-2.94.946-4.73.946-1.81 0-3.37-.292-4.68-.878-1.3-.584-2.38-1.377-3.23-2.375-.85-.998-1.47-2.168-1.87-3.51-.4-1.344-.6-2.783-.6-4.32 0-1.63.24-3.173.71-4.63.47-1.458 1.17-2.732 2.09-3.822.92-1.09 2.06-1.95 3.43-2.582 1.33-.63 2.91-.946 4.7-.946 1.82 0 3.38.293 4.69.878 1.31.585 2.39 1.376 3.24 2.375.85 1 1.48 2.17 1.88 3.512.4 1.342.6 2.783.6 4.32 0 1.63-.233 3.173-.704 4.63zm-3.2-7.21c-.22-1.24-.6-2.376-1.137-3.41-.54-1.032-1.27-1.887-2.186-2.564-.91-.677-2.06-1.015-3.44-1.015-1.24 0-2.3.264-3.2.792s-1.63 1.228-2.2 2.1c-.57.872-1 1.882-1.27 3.03-.27 1.147-.41 2.34-.41 3.58 0 1.147.11 2.34.33 3.58.22 1.238.6 2.374 1.14 3.407s1.27 1.882 2.19 2.547c.92.67 2.07 1 3.45 1 1.24 0 2.31-.26 3.2-.79.9-.52 1.63-1.23 2.2-2.1.58-.87 1-1.88 1.28-3.03.28-1.14.41-2.34.41-3.58 0-1.12-.11-2.3-.32-3.54zm26.78 7.21c-.47 1.458-1.164 2.73-2.08 3.82-.92 1.09-2.06 1.95-3.427 2.583s-2.943.946-4.732.946c-1.814 0-3.374-.292-4.683-.878-1.308-.584-2.387-1.377-3.235-2.375-.85-.998-1.475-2.168-1.876-3.51-.4-1.344-.6-2.783-.6-4.32 0-1.63.24-3.173.71-4.63.47-1.458 1.17-2.732 2.09-3.822.92-1.09 2.06-1.95 3.43-2.582C54.09 1.316 55.67 1 57.46 1c1.813 0 3.374.293 4.683.878 1.307.585 2.386 1.376 3.234 2.375.85 1 1.477 2.17 1.88 3.512.4 1.342.6 2.783.6 4.32 0 1.63-.234 3.173-.704 4.63zm-3.2-7.21c-.22-1.24-.6-2.376-1.138-3.41-.54-1.032-1.268-1.887-2.186-2.564-.918-.677-2.064-1.015-3.442-1.015-1.24 0-2.306.264-3.2.792-.897.528-1.63 1.228-2.205 2.1-.573.872-.998 1.882-1.273 3.03-.275 1.147-.413 2.34-.413 3.58 0 1.147.11 2.34.327 3.58.218 1.238.596 2.374 1.136 3.407.54 1.033 1.268 1.882 2.186 2.547.918.67 2.065 1 3.442 1 1.24 0 2.307-.26 3.202-.79.895-.52 1.63-1.23 2.202-2.1s1-1.88 1.274-3.03.412-2.34.412-3.58c.002-1.12-.108-2.3-.325-3.54zm7.52-3.444c0-.78-.03-1.577-.085-2.392-.06-.814-.29-1.52-.68-2.117 1.37 0 2.73-.05 4.06-.17 1.33-.11 2.67-.17 4.02-.17 1.1 0 2.05.15 2.85.43.8.29 1.47.69 1.99 1.21s.91 1.13 1.17 1.83c.25.7.38 1.48.38 2.33 0 .99-.15 1.9-.45 2.74-.3.84-.73 1.57-1.29 2.19-.57.62-1.25 1.1-2.05 1.45-.8.35-1.72.52-2.76.52-.46 0-.84-.02-1.15-.05-.31-.03-.58-.08-.79-.15-.22-.07-.41-.15-.57-.24-.16-.09-.32-.2-.48-.31.66-.09 1.35-.21 2.05-.35.7-.14 1.34-.4 1.92-.79s1.06-.95 1.43-1.69c.37-.73.55-1.72.55-2.96 0-.66-.06-1.29-.17-1.87-.12-.58-.33-1.09-.66-1.51-.32-.42-.76-.75-1.32-1-.57-.24-1.28-.36-2.15-.36h-2.75v16.42c0 .69.05 1.47.15 2.33.1.86.35 1.59.74 2.19H70.7c.206-.3.36-.63.464-1.01s.176-.77.223-1.17c.045-.4.07-.8.07-1.19V6.06zM87.06 19.21c.25.368.544.752.876 1.153.332.402.74.774 1.223 1.12.48.343 1.04.63 1.7.86s1.43.344 2.32.344c1.31 0 2.4-.373 3.27-1.12.87-.745 1.31-1.807 1.31-3.183 0-.965-.24-1.768-.73-2.41s-1.09-1.21-1.83-1.704-1.53-.952-2.38-1.377c-.85-.424-1.65-.9-2.38-1.43-.74-.526-1.34-1.146-1.83-1.858-.48-.71-.72-1.595-.72-2.65 0-.986.18-1.853.56-2.6.38-.745.88-1.37 1.52-1.875.63-.505 1.36-.878 2.2-1.12.84-.24 1.72-.36 2.63-.36.9 0 1.78.035 2.67.104.88.07 1.76.103 2.63.103V4.41c-.39-.414-.76-.747-1.09-1-.338-.252-.68-.458-1.037-.62s-.748-.27-1.17-.326c-.428-.058-.926-.086-1.5-.086-1.217 0-2.22.305-3.01.912-.79.608-1.19 1.566-1.19 2.875 0 .896.242 1.635.723 2.22.487.586 1.09 1.114 1.83 1.584s1.525.91 2.373 1.32c.85.41 1.64.89 2.377 1.43.74.54 1.348 1.17 1.83 1.91.48.73.72 1.65.72 2.75 0 1.07-.234 2.03-.705 2.85-.47.82-1.09 1.52-1.854 2.08-.77.56-1.63.99-2.586 1.29-.95.3-1.91.44-2.87.44-.414 0-.885-.04-1.414-.11-.526-.07-1.054-.16-1.58-.26-.53-.11-1.05-.23-1.566-.38-.52-.15-.98-.31-1.36-.47V19.2z"/></svg>