<svg xmlns="http://www.w3.org/2000/svg" xmlns:xlink="http://www.w3.org/1999/xlink" version="1.1" x="0px" y="0px" width="24px" height="24px" viewBox="0 0 24 24" enable-background="new 0 0 24 24" xml:space="preserve"><g><path d="M21.731 1h-5.979c-1.238 0-2.242 1.003-2.242 2.242v3.113c-0.912-0.247-2.076-0.271-2.989-0.054v-3.06 C10.521 2.003 9.518 1 8.278 1H2.3C1.06 1 0.058 2.003 0.058 3.242v10.464c0 1.237 1.002 2.241 2.242 2.241h5.979 c1.24 0 2.242-1.004 2.242-2.241V7.872c0.987-0.276 2.067-0.223 2.989 0.053v5.781c0 1.237 1.004 2.241 2.242 2.241h5.979 c1.238 0 2.241-1.004 2.241-2.241V3.242C23.973 2.003 22.97 1 21.731 1z M9.026 12.659c0 0.992-0.716 1.794-1.601 1.794H3.153 c-0.885 0-1.6-0.803-1.6-1.794v-8.37c0-0.991 0.715-1.793 1.6-1.793h4.271c0.886 0 1.602 0.803 1.602 1.793V12.659z M22.479 12.659 c0 0.992-0.716 1.794-1.6 1.794h-4.271c-0.888 0-1.603-0.803-1.603-1.794v-8.37c0-0.991 0.715-1.793 1.6-1.793h4.271 c0.888 0 1.604 0.803 1.604 1.793V12.659z"/><path d="M6.036 8.474c-0.824 0-1.494 0.67-1.494 1.495v1.495c0 0.824 0.67 1.494 1.494 1.494c0.825 0 1.495-0.67 1.495-1.494V9.968 C7.531 9.144 6.861 8.474 6.036 8.474z"/><path d="M19.489 8.474c-0.826 0-1.495 0.67-1.495 1.495v1.495c0 0.824 0.669 1.494 1.495 1.494s1.494-0.67 1.494-1.494V9.968 C20.983 9.144 20.315 8.474 19.489 8.474z"/><path d="M22.479 17.816c-4.034 4.906-17.189 4.543-20.926 0c-0.265-0.322-0.29 1.531 0 1.816c4.068 4.002 17.224 4.5 20.926 0 C22.742 19.313 22.742 17.494 22.479 17.816z"/></g></svg>