<svg xmlns="http://www.w3.org/2000/svg" xmlns:xlink="http://www.w3.org/1999/xlink" version="1.1" id="Layer_1" x="0px" y="0px" width="24px" height="24px" viewBox="0 0 24 24" enable-background="new 0 0 24 24" xml:space="preserve"><style>.style0{opacity:	0.8;fill:	#FFFFFF;}</style><circle cx="16.5" cy="6.3" r="6.2"/><path enable-background="new    " d="M12.276 8.667c-0.402-0.712-0.65-1.522-0.65-2.397 c0-2.71 2.197-4.907 4.908-4.907c0.612 0 1.2 0.1 1.7 0.331c-3.361 0.25-6.017 3.05-6.017 6.477C12.251 8.3 12.3 8.5 12.3 8.667 H12.276z" class="style0"/><path d="M19.189 12.465c0.172 0.7 0.3 1.4 0.3 2.201c0 5.098-4.132 9.229-9.229 9.229C5.165 23.895 1 19.8 1 14.7 c0-4.968 3.926-9.018 8.845-9.218c-0.033 0.27-0.05 0.543-0.05 0.822c0 3.7 3 6.7 6.7 6.7C17.477 13 18.4 12.8 19.2 12.465H19.189z"/><path enable-background="new    " d="M3.523 16.721c0 0.7 0.1 1.301 0.2 1.979 c-0.729-1.173-1.149-2.554-1.149-4.032c0-3.569 2.447-6.566 5.754-7.406c0.05 0.4 0.1 0.8 0.2 1.206C5.577 10 3.5 13.1 3.5 16.721 H3.523z" class="style0"/></svg>