<svg version="1.1" xmlns="http://www.w3.org/2000/svg" xmlns:xlink="http://www.w3.org/1999/xlink" width="32" height="32" viewBox="0 0 32 32">
<path  d="M14.438 22.5c-0.188 0.313-0.438 0.5-0.625 0.5-0.125 0-0.188-0.063-0.25-0.25 0 0 0-0.125 0-0.375v-4.063h-1v4.375c0 0.375 0.063 0.625 0.125 0.813 0.063 0.25 0.313 0.438 0.625 0.438 0.375 0 0.75-0.25 1.125-0.688v0.563h1v-5.5h-1zM8.938 17.438h1.188v6.375h1.125v-6.375h1.188v-1.063h-3.5zM15.75 12.563c0.375 0 0.5-0.25 0.5-0.75v-2.375c0-0.5-0.125-0.75-0.5-0.75-0.313 0-0.438 0.25-0.438 0.75v2.375c0 0.5 0.125 0.75 0.438 0.75zM18.375 18.25c-0.375 0-0.688 0.188-1.063 0.563v-2.438h-1v7.438h1v-0.5c0.375 0.375 0.688 0.625 1.063 0.625s0.688-0.25 0.813-0.625c0.063-0.25 0.125-0.625 0.125-1.125v-2.25c0-0.5-0.063-0.875-0.125-1.063-0.125-0.438-0.438-0.625-0.813-0.625zM18.25 22.25c0 0.5-0.125 0.75-0.438 0.75-0.125 0-0.313-0.063-0.5-0.25v-3.375c0.188-0.188 0.375-0.25 0.5-0.25 0.313 0 0.438 0.25 0.438 0.75zM21.563 18.25c-0.5 0-0.875 0.188-1.188 0.563-0.188 0.25-0.313 0.688-0.313 1.313v1.938c0 0.563 0.125 1 0.313 1.25 0.313 0.438 0.688 0.625 1.25 0.625 0.5 0 0.938-0.25 1.188-0.625 0.125-0.188 0.188-0.375 0.25-0.625 0-0.063 0-0.313 0-0.625v-0.125h-1c0 0.375 0 0.625-0.063 0.625 0 0.313-0.188 0.438-0.438 0.438-0.313 0-0.5-0.25-0.5-0.75v-1h2v-1.188c0-0.563-0.063-1-0.313-1.25-0.25-0.375-0.688-0.563-1.188-0.563zM22.063 20.375h-1v-0.5c0-0.5 0.188-0.75 0.5-0.75s0.5 0.25 0.5 0.75zM25.25 4.5h-18.5c-1.25 0-2.25 1-2.25 2.25v18.5c0 1.25 1 2.25 2.25 2.25h18.5c1.25 0 2.25-1 2.25-2.25v-18.5c0-1.25-1-2.25-2.25-2.25zM18.125 7.813h1v4.125c0 0.25 0 0.375 0 0.438 0 0.125 0.125 0.188 0.25 0.188 0.188 0 0.438-0.125 0.625-0.438v-4.313h1v5.625h-1v-0.625c-0.375 0.5-0.75 0.688-1.125 0.688s-0.563-0.125-0.688-0.375c-0.063-0.188-0.063-0.438-0.063-0.875zM14.25 9.688c0-0.625 0.125-1.063 0.313-1.375 0.313-0.375 0.688-0.563 1.188-0.563s0.938 0.188 1.188 0.563c0.25 0.313 0.313 0.75 0.313 1.375v1.938c0 0.563-0.063 1.063-0.313 1.313-0.25 0.375-0.688 0.563-1.188 0.563s-0.875-0.188-1.188-0.563c-0.188-0.25-0.313-0.75-0.313-1.313zM11.563 5.938l0.813 2.938 0.75-2.938h1.125l-1.375 4.438v3.063h-1.125v-3.063c-0.063-0.5-0.313-1.313-0.688-2.375-0.188-0.688-0.438-1.375-0.688-2.063zM24 24.188c-0.188 0.875-0.875 1.5-1.75 1.625-2.063 0.188-4.188 0.188-6.25 0.188s-4.188 0-6.25-0.188c-0.875-0.125-1.563-0.75-1.75-1.625-0.313-1.25-0.313-2.625-0.313-3.938s0-2.688 0.313-3.938c0.188-0.875 0.938-1.563 1.75-1.625 2.063-0.25 4.188-0.25 6.25-0.25s4.188 0 6.25 0.25c0.875 0.063 1.563 0.75 1.75 1.625 0.313 1.25 0.313 2.625 0.313 3.938s0 2.688-0.313 3.938z"></path>
</svg>
